<svg xmlns="http://www.w3.org/2000/svg" viewBox="0 0 205.5 205.5"><defs><style>.cls-1{fill:#6e9cff;}</style></defs><title>Btn.Información</title><g id="Capa_2" data-name="Capa 2"><g id="home"><path class="cls-1" d="M102.75,7A95.75,95.75,0,1,1,7,102.75,95.85,95.85,0,0,1,102.75,7m0-7h0A102.75,102.75,0,0,0,0,102.75H0A102.75,102.75,0,0,0,102.75,205.5h0A102.75,102.75,0,0,0,205.5,102.75h0A102.75,102.75,0,0,0,102.75,0Z"/><path class="cls-1" d="M112.21,43.22c-29.94-4-57.53,17.64-61.5,48.21A56,56,0,0,0,60,130.69a53.19,53.19,0,0,1-12.42,21,6.65,6.65,0,0,0-1.49,6.84,5.75,5.75,0,0,0,5,4c1.37.13,2.73.25,4.22.25,10.69,0,21.37-4.22,30.2-11.93a57.82,57.82,0,0,0,12.3,3.11,53.6,53.6,0,0,0,40.5-11.31,56.28,56.28,0,0,0,21-37C163.28,75.15,142.15,47.07,112.21,43.22Zm37.65,61.38a46.61,46.61,0,0,1-17.4,30.69A44.57,44.57,0,0,1,99,144.61,46.72,46.72,0,0,1,86.37,141l-3-1.25L81.15,142c-6.46,6.34-14.17,10.19-22,11.06a65,65,0,0,0,10.8-22l.5-2.24L69.1,127a46.27,46.27,0,0,1-8.95-34.3c3-23.36,22.61-40.38,45.1-40.38a45.77,45.77,0,0,1,5.72.37C135.69,55.89,153.21,79.13,149.86,104.6Z"/><path class="cls-1" d="M109.23,121.75A5.09,5.09,0,0,1,106,121a3.58,3.58,0,0,1-1-2.86c0-.62.13-1.36.25-2.48s.37-2.11.62-2.86l3-10.56a23.21,23.21,0,0,0,.62-3.23,22.22,22.22,0,0,0,.12-2.49,6.78,6.78,0,0,0-2.36-5.46A10.08,10.08,0,0,0,100.53,89a14.93,14.93,0,0,0-5.09.87c-1.74.62-3.73,1.24-5.72,2.11l-.62,3.23a19.85,19.85,0,0,1,2.11-.75A8.4,8.4,0,0,1,93.57,94a5.09,5.09,0,0,1,3.23.75c.62.49.87,1.49.87,2.85a17.78,17.78,0,0,1-.25,2.49A28.66,28.66,0,0,1,96.8,103l-3,10.68c-.25,1.12-.5,2.11-.62,3a19,19,0,0,0-.12,2.61,7.1,7.1,0,0,0,2.48,5.47,10.2,10.2,0,0,0,6.83,2.11,15.08,15.08,0,0,0,5-.74c1.5-.5,3.36-1.25,5.72-2.12l.75-3.23a9.09,9.09,0,0,1-2,.62A11,11,0,0,1,109.23,121.75Z"/><path class="cls-1" d="M107.36,69.44a7.12,7.12,0,0,0-5.09,2,6.38,6.38,0,0,0-2.11,4.72,6.21,6.21,0,0,0,2.11,4.72,7.49,7.49,0,0,0,5.09,2,7.12,7.12,0,0,0,5.1-2,6.33,6.33,0,0,0,0-9.44A7.67,7.67,0,0,0,107.36,69.44Z"/></g></g></svg>