<svg xmlns="http://www.w3.org/2000/svg" viewBox="0 0 205.5 205.5"><defs><style>.cls-1{fill:#6e9cff;}</style></defs><title>Btn.Asis.Médica</title><g id="Capa_2" data-name="Capa 2"><g id="home"><path class="cls-1" d="M102.75,7A95.75,95.75,0,1,1,7,102.75,95.85,95.85,0,0,1,102.75,7m0-7h0A102.75,102.75,0,0,0,0,102.75H0A102.75,102.75,0,0,0,102.75,205.5h0A102.75,102.75,0,0,0,205.5,102.75h0A102.75,102.75,0,0,0,102.75,0Z"/><path class="cls-1" d="M91,76.53a36.21,36.21,0,0,0,10.62,25.52l-4.69,6.21A2.59,2.59,0,0,0,99,112.4h25.39l-.14-.14c.83,0,1.66.14,2.63.14A35.88,35.88,0,1,0,91,76.53Zm41.67-16.84v9.52a1.09,1.09,0,0,0,1.1,1.11h9.52a1.09,1.09,0,0,1,1.11,1.1v9.52a1.1,1.1,0,0,1-1.11,1.11h-9.52a1.08,1.08,0,0,0-1.1,1.1v9.52a1.09,1.09,0,0,1-1.1,1.11h-9.52a1.09,1.09,0,0,1-1.11-1.11V83.15a1.08,1.08,0,0,0-1.1-1.1h-9.52a1.1,1.1,0,0,1-1.11-1.11V71.42a1.09,1.09,0,0,1,1.11-1.1h9.52a1.09,1.09,0,0,0,1.1-1.11V59.69a1.09,1.09,0,0,1,1.11-1.1h9.65A1.06,1.06,0,0,1,132.67,59.69Z"/><path class="cls-1" d="M59.26,135.58l2.21,2.76h0c13.8,16.84,30.36,26.91,42.5,26.49a17,17,0,0,0,6.07-1.37l.14.13,5.93-4.69c3.31-2.48,3.73-7.45,1.11-11.31h0l-9.39-12a8.34,8.34,0,0,0-5.1-3.17,5.9,5.9,0,0,0-5.24,1.24l-5.8,4.55h0c-.14,0-.14.14-.28.14l-.13.14c-6.07,4.69-16.7,1.38-23.74-7.17-6.76-8.83-7.45-20-1.38-24.7l.14-.14c.14,0,.14-.14.28-.14l5.79-4.55c3-2.35,3.31-7,.55-10.49L63.82,79.7l-.28-.41h0c-3-3.45-8-4.28-11.17-1.66l-5.94,4.83c-8,10.35-2.62,32.56,12.83,53.12Z"/></g></g></svg>