<svg xmlns="http://www.w3.org/2000/svg" viewBox="0 0 205.5 205.5"><defs><style>.cls-1{fill:#6e9cff;}.cls-2{fill:#fff;}</style></defs><title>Btn.Diagnóstico</title><g id="Capa_2" data-name="Capa 2"><g id="home"><rect class="cls-1" width="205.5" height="205.5" rx="102.75"/><path class="cls-2" d="M152.35,70.85a4.21,4.21,0,0,0-1.1-1.65h0l-25-25a5.72,5.72,0,0,0-1.65-1.05,4.92,4.92,0,0,0-1.85-.4h-65a5,5,0,0,0-5,5v110a5,5,0,0,0,5,5h90a5,5,0,0,0,5-5v-85h0A5,5,0,0,0,152.35,70.85Zm-16.75-3.1h-7.85v-7.9Zm7.15,85h-80v-100h55v20a5,5,0,0,0,5,5h20Z"/><path class="cls-2" d="M72.75,77.75h5v5a5,5,0,0,0,10,0v-5h5a5,5,0,0,0,0-10h-5v-5a5,5,0,0,0-10,0v5h-5a5,5,0,0,0,0,10Z"/><path class="cls-2" d="M67.75,97.75a5,5,0,0,0,5,5h60a5,5,0,0,0,0-10h-60A5,5,0,0,0,67.75,97.75Z"/><path class="cls-2" d="M122.75,107.75h-40a5,5,0,0,0,0,10h40a5,5,0,0,0,0-10Z"/><path class="cls-2" d="M122.75,122.75h-40a5,5,0,0,0,0,10h40a5,5,0,0,0,0-10Z"/><path class="cls-2" d="M102.75,137.75h-20a5,5,0,0,0,0,10h20a5,5,0,0,0,0-10Z"/></g></g></svg>