<svg xmlns="http://www.w3.org/2000/svg" viewBox="0 0 500 177.56"><defs><style>.cls-1{fill:#fff;}.cls-2{fill:#e5e2e2;}.cls-3,.cls-9{fill:#6a86c3;}.cls-4{fill:#98c0e7;}.cls-5{fill:#432e4a;}.cls-6{fill:#facfb4;}.cls-7{fill:#f29483;}.cls-8{fill:#fff9f4;}.cls-9{font-size:35.21px;font-family:Ubuntu-Bold, Ubuntu;font-weight:700;}</style></defs><title>img.prevención</title><g id="Capa_2" data-name="Capa 2"><g id="home"><path class="cls-1" d="M25.15,176.31a23.93,23.93,0,0,1-23.9-23.9V25.15A23.93,23.93,0,0,1,25.15,1.26h449.7a23.92,23.92,0,0,1,23.89,23.89V152.41a23.92,23.92,0,0,1-23.89,23.9Z"/><path class="cls-2" d="M474.85,2.51a22.66,22.66,0,0,1,22.63,22.64V152.41a22.66,22.66,0,0,1-22.63,22.64H25.15A22.67,22.67,0,0,1,2.51,152.41V25.15A22.67,22.67,0,0,1,25.15,2.51Zm0-2.51H25.15A25.15,25.15,0,0,0,0,25.15V152.41a25.15,25.15,0,0,0,25.15,25.15h449.7A25.15,25.15,0,0,0,500,152.41V25.15A25.15,25.15,0,0,0,474.85,0Z"/><path class="cls-3" d="M188.13,88.78a79,79,0,1,1-79-79,79,79,0,0,1,79,79"/><path class="cls-1" d="M184.1,88.78a74.95,74.95,0,1,1-74.94-74.95,74.94,74.94,0,0,1,74.94,75"/><path class="cls-4" d="M79.42,157.6h59.47a75.1,75.1,0,0,0,20.2-12.93c.19-17.19-.81-46.09-9.49-51.82-12.51-8.27-71-6.55-84,.52-9,4.89-8,33.83-6.54,51.15A75,75,0,0,0,79.42,157.6"/><path class="cls-5" d="M76.79,80.94a.59.59,0,0,1-.4-.14c-.27-.22-6.57-5.52-3.13-16.21a81.7,81.7,0,0,1,3.43-8.72c1.88-4.21,3.23-7.24,3.48-13.74a.65.65,0,0,1,1.29,0c-.27,6.75-1.74,10-3.6,14.21A81.36,81.36,0,0,0,74.48,65c-3.18,9.87,2.65,14.78,2.72,14.83a.65.65,0,0,1,.09.9.62.62,0,0,1-.5.23"/><path class="cls-5" d="M111.66,17.21a8,8,0,1,1-16-.59,7.62,7.62,0,0,1,.22-1.6,75,75,0,0,1,13.33-1.19c.64,0,1.27,0,1.91,0a8,8,0,0,1,.59,3.35"/><path class="cls-5" d="M76.07,77.83s2.36,4.86,12,6.57,17.18-1.77,24.62.92,18.16-.82,20.29-3.94,1.68-37.7-4.18-43.5S92.22,27.24,85.57,34s-13.72,39.9-9.5,43.8"/><path class="cls-5" d="M131.64,50.55A26.48,26.48,0,1,1,106.18,23.1a26.48,26.48,0,0,1,25.46,27.45"/><path class="cls-6" d="M116,72.69s1.72,20.62,0,22.91-12.59.57-15.46,0-4-22.91-2.29-22.91,17.43-4.6,17.75,0"/><path class="cls-6" d="M83.57,48.56s1.09,32.14,22.82,33.52,21.7-43.89,13.84-48.19-40.68-3.5-36.66,14.67"/><path class="cls-7" d="M105.88,55.44S110,65.33,109,66s-4.19.54-5-.19.25-11.47,1.95-10.36"/><path class="cls-5" d="M99.37,62.05a2,2,0,1,1-1.94-2.14,2,2,0,0,1,1.94,2.14"/><path class="cls-5" d="M116.9,61.09A2,2,0,1,1,115,59a2,2,0,0,1,1.94,2.14"/><path class="cls-5" d="M100.68,31.42s-7.8,3.77-9.28,10.84-.71,25.19-9,24.35c0,0-16-35.83,18.25-35.19"/><path class="cls-5" d="M104.78,31.57c-.7.51,8,.49,13,6.55s6.19,21.19,7,21.48,3.86-18.76-1.62-24.49-14.34-6.41-18.37-3.54"/><path class="cls-7" d="M98.59,79.16s8.46,4.8,17.24.31c0,0,.68,5.4,0,6.64s-14.59,2.13-17.33-4c0,0-.7-3.22.09-3"/><path class="cls-6" d="M122.9,60.89s2.08-8,5.71-5.18.34,11.27-3.24,12-4.46-2.71-2.47-6.85"/><path class="cls-6" d="M88.62,59.6s-1.47-8.18-5.3-5.59-1.19,11.21,2.33,12.24,4.64-2.36,3-6.65"/><path class="cls-5" d="M114,50.52s3.89-1.93,6.19,1c2,2.61-2.68.43-4.44.71s-4.06.09-1.75-1.74"/><path class="cls-5" d="M98.76,50.89S94.87,49,92.58,52c-2,2.61,2.68.41,4.44.69s4.07.08,1.74-1.75"/><path class="cls-8" d="M97.17,67.47H96.9a7.07,7.07,0,0,1,.26-14.14h.27a7.08,7.08,0,0,1-.26,14.15m0-13.3a6.22,6.22,0,0,0-.23,12.44h.24a6.22,6.22,0,0,0,.23-12.44Z"/><path class="cls-8" d="M114.83,66.48h-.27a7.07,7.07,0,0,1,.25-14.14h.27a7.08,7.08,0,0,1-.25,14.15m0-13.3a6.22,6.22,0,0,0-.22,12.44h.24a6.22,6.22,0,0,0,.23-12.44Z"/><path class="cls-8" d="M90.73,59.16a.47.47,0,0,1-.16,0L88,58.1a.42.42,0,0,1-.24-.55.44.44,0,0,1,.56-.24l2.59,1a.43.43,0,0,1,.24.56.45.45,0,0,1-.4.27"/><path class="cls-8" d="M121.22,58a.42.42,0,0,1-.41-.31.41.41,0,0,1,.3-.52l3.59-1a.42.42,0,0,1,.52.3.42.42,0,0,1-.29.52l-3.59,1Z"/><path class="cls-5" d="M103.31,29.73s1,17.43,5.78,19,16.61,1.14,17.18-.76-9.15-17.24-16.13-19.69C97.9,24,87.34,43.87,88.74,48.66s11.91.6,14.15,0,0-15.47.42-18.92"/><path class="cls-8" d="M103.81,60.7a.43.43,0,0,1,0-.85l4.38-.35a.41.41,0,0,1,.46.4.43.43,0,0,1-.39.46l-4.38.34Z"/><path class="cls-5" d="M98.62,25a.6.6,0,0,1-.3-.07,7.2,7.2,0,0,1-4.16-5,8.84,8.84,0,0,1,.48-4.62L96.12,15a8.12,8.12,0,0,0-.7,4.65,6,6,0,0,0,3.49,4.13.64.64,0,0,1-.29,1.2"/><path class="cls-5" d="M107.88,26.38a.62.62,0,0,1-.49-.23.65.65,0,0,1,.08-.9s4.73-4,4.62-8.13a5.28,5.28,0,0,0-1.3-3.26l1.62.05a6.34,6.34,0,0,1,1,3.18c.13,4.74-4.86,9-5.06,9.15a.66.66,0,0,1-.42.14"/><path class="cls-5" d="M130.83,80.41a.65.65,0,0,1-.51-.25.64.64,0,0,1,.11-.9,11.87,11.87,0,0,0,4-11.27A79.52,79.52,0,0,0,131.94,59c-1.79-5.57-3.65-11.33-3.69-16.89a.64.64,0,0,1,.64-.64h0a.63.63,0,0,1,.63.63c0,5.37,1.86,11,3.63,16.51a84.12,84.12,0,0,1,2.58,9.1,13.12,13.12,0,0,1-4.53,12.52.59.59,0,0,1-.38.14"/><path class="cls-5" d="M133,51.21h-.08a.63.63,0,0,1-.55-.71c.86-7-.48-12.79-4-17.11-5.66-7-15.13-7.81-15.22-7.82a.64.64,0,0,1-.59-.69.63.63,0,0,1,.69-.58c.41,0,10.1.9,16.11,8.28,3.74,4.59,5.18,10.68,4.27,18.08a.65.65,0,0,1-.64.56"/><path class="cls-7" d="M107,75.88c-.72,0-1.49,0-2.06,0a.63.63,0,0,1-.61-.67.62.62,0,0,1,.66-.61,23.76,23.76,0,0,0,3.58,0,.66.66,0,0,1,.8.42.62.62,0,0,1-.38.79,8.29,8.29,0,0,1-2,.15"/><path class="cls-7" d="M86.41,64.26a.39.39,0,0,1-.18,0,.64.64,0,0,1-.43-.79A6.37,6.37,0,0,0,84.15,57a.66.66,0,0,1-.05-.91.64.64,0,0,1,.91-.05,7.6,7.6,0,0,1,2,7.72.64.64,0,0,1-.61.46"/><path class="cls-7" d="M124.38,66.13h-.07a.66.66,0,0,1-.58-.7A12.77,12.77,0,0,1,126.64,58a.63.63,0,0,1,.9,0,.63.63,0,0,1,0,.9A11.8,11.8,0,0,0,125,65.54a.64.64,0,0,1-.63.59"/><path class="cls-6" d="M87.07,94.69s14.54,17.38,25.75,12.73,21.71-17.26,16.07-18.93-50.63-.79-41.82,6.2"/><path class="cls-1" d="M125.47,117.66s-8.48-7.61-17.33-3.31S102,127.57,93.89,125.92s-22.74.84-19.26,9.59c2,5-4.53,9.45-8.82,14.42a75.09,75.09,0,0,0,64.36,10.81c4-4,11.88-6,10.31-13-1.93-8.6-3.85-20.51-15-30.09"/><path class="cls-6" d="M97.49,137.66S106.13,148,106.11,158c0,6.36-4.7-4.36-6.31-6.53s3.47,7.18,1.79,10.17c-.82,1.46-6.06-9.35-6.06-9.35s1.69,7.75,1.18,10.37l-1.87-.34a50.52,50.52,0,0,1-3.57-7.67,30.72,30.72,0,0,1-.57,6.75c-.71-.18-1.42-.37-2.12-.57-.82-2.6-2-7.28-6.65-9.73-2-1-6,.33-10.74,2.27a75.26,75.26,0,0,1-22.6-20.47c4.64-5,12.61-6.29,24.3-4.26,16.49,2.87,19.1,4.69,24.6,9"/><path class="cls-6" d="M116.72,137.66S108.07,148,108.09,158c0,6.36,4.7-4.36,6.31-6.53s-3.46,7.18-1.78,10.17c.82,1.46,6-9.35,6-9.35s-2,9.13-1,10.92l1.1-.13c1.67-1.76,4.16-8.43,4.16-8.43s-.13,5.91.92,7.6l1.36-.29c1-2.06,1.58-8,7.06-10.86,2.15-1.12,7.13.83,12.93,3.37a75.45,75.45,0,0,0,23.13-19.72c-5.68-6-15-8.19-27-6.11-16.5,2.87-19.11,4.69-24.6,9"/><path class="cls-1" d="M126.34,155.12s.19-17.57,9.8-17.46,14.17,8.7,5.13,13.77-15.18,7.12-14.93,3.69"/><path class="cls-1" d="M133.59,144.18s1.53,3.57,5.16,3.93c3.07.3,9.45.09,11.77,3.18a74.65,74.65,0,0,1-25,10.64c.29-6.88,3.74-19.22,8.06-17.75"/><path class="cls-1" d="M142.73,116.33a4.3,4.3,0,1,1-4.3-4.3,4.3,4.3,0,0,1,4.3,4.3"/><path class="cls-1" d="M92.91,116.33a4.3,4.3,0,1,1-4.3-4.3,4.31,4.31,0,0,1,4.3,4.3"/><path class="cls-7" d="M106.58,71.73a11.43,11.43,0,0,1-6.3-2.37.64.64,0,0,1,.8-1s3.28,2.57,6.43,2a5.63,5.63,0,0,0,3.81-2.87.64.64,0,1,1,1.09.67,6.81,6.81,0,0,1-4.69,3.46,7.4,7.4,0,0,1-1.14.09"/><path class="cls-4" d="M80.81,90.16s-12,16.48-12.35,26.17-11.08,13.77-8,27.73a19.69,19.69,0,0,0,.64,2.2,75.13,75.13,0,0,1-20-26.2c2.86-9.55,7.16-17.71,11.53-21.14,8.1-6.36,28.25-8.76,28.25-8.76"/><path class="cls-4" d="M137.49,90.16s12,16.48,12.35,26.17,11.09,13.77,8,27.73a20.47,20.47,0,0,1-.64,2.21,75.22,75.22,0,0,0,20-26.21c-2.86-9.55-7.16-17.71-11.53-21.14-8.11-6.36-28.26-8.76-28.26-8.76"/><text class="cls-9" transform="translate(241.32 101.39)">Pr</text><text class="cls-9" transform="translate(278.15 101.39)">e</text><text class="cls-9" transform="translate(299.06 101.39)">v</text><text class="cls-9" transform="translate(317.23 101.39)">e</text><text class="cls-9" transform="translate(338.15 101.39)">nción</text></g></g></svg>