<svg xmlns="http://www.w3.org/2000/svg" viewBox="0 0 500 177.56"><defs><style>.cls-1{fill:#fff;}.cls-2{fill:#e5e2e2;}.cls-3{font-size:35.21px;}.cls-3,.cls-4,.cls-9{fill:#6a86c3;}.cls-3,.cls-9{font-family:Ubuntu-Bold, Ubuntu;font-weight:700;}.cls-5{fill:#98c0e7;}.cls-5,.cls-6,.cls-7,.cls-8{fill-rule:evenodd;}.cls-6{fill:#f29483;}.cls-7{fill:#facfb3;}.cls-8{fill:#dbe8f7;}.cls-9{font-size:17.93px;}</style></defs><title>img.estadística</title><g id="Capa_2" data-name="Capa 2"><g id="home"><path class="cls-1" d="M25.15,176.31a23.93,23.93,0,0,1-23.9-23.9V25.15A23.93,23.93,0,0,1,25.15,1.26h449.7a23.92,23.92,0,0,1,23.89,23.89V152.41a23.92,23.92,0,0,1-23.89,23.9Z"/><path class="cls-2" d="M474.85,2.51a22.66,22.66,0,0,1,22.63,22.64V152.41a22.66,22.66,0,0,1-22.63,22.64H25.15A22.67,22.67,0,0,1,2.51,152.41V25.15A22.67,22.67,0,0,1,25.15,2.51Zm0-2.51H25.15A25.15,25.15,0,0,0,0,25.15V152.41a25.15,25.15,0,0,0,25.15,25.15h449.7A25.15,25.15,0,0,0,500,152.41V25.15A25.15,25.15,0,0,0,474.85,0Z"/><text class="cls-3" transform="translate(243.02 96.84)">Est</text><text class="cls-3" transform="translate(296.01 96.84)">adíst</text><text class="cls-3" transform="translate(379.99 96.84)">ic</text><text class="cls-3" transform="translate(405.83 96.84)">a</text><text class="cls-3" transform="translate(425.66 96.84)">s</text><path class="cls-4" d="M188.22,89.35a79,79,0,1,1-79-79,79,79,0,0,1,79,79"/><path class="cls-1" d="M184.2,89.35A75,75,0,1,1,109.25,14.4,75,75,0,0,1,184.2,89.35"/><path class="cls-5" d="M109.24,44.12V73.05a22.62,22.62,0,1,0,12.82,41.26l16.4,23.84a51.55,51.55,0,1,1-29.22-94"/><path class="cls-6" d="M114.31,60.41V31.48a51.35,51.35,0,0,1,33.2,12.11L128.87,65.72a22.47,22.47,0,0,0-14.56-5.31"/><path class="cls-7" d="M123.81,78.36l18.63-22.13a51.5,51.5,0,0,1,17.31,29.05,52.31,52.31,0,0,1,1.05,10.39,51.51,51.51,0,0,1-22.34,42.48l-16.4-23.84a22.62,22.62,0,0,0,1.75-35.95"/><path class="cls-8" d="M87.09,91.11,58.74,85.28a51.57,51.57,0,0,0,79.72,52.87l-16.4-23.84A22.62,22.62,0,0,1,86.63,95.67a22.18,22.18,0,0,1,.46-4.56"/><text class="cls-9" transform="translate(93.11 100.6)">20%</text></g></g></svg>