<svg xmlns="http://www.w3.org/2000/svg" viewBox="0 0 255.35 83.53"><defs><style>.cls-1{fill:#1d1d1b;}.cls-2{fill:#fff;}</style></defs><title>img.app.store</title><g id="Capa_2" data-name="Capa 2"><g id="home"><rect class="cls-1" width="255.35" height="83.53" rx="11.29"/><path class="cls-2" d="M44.1,14.28H23.3a4.51,4.51,0,0,0-4.51,4.52V64.88a4.51,4.51,0,0,0,4.51,4.51H44.1a4.52,4.52,0,0,0,4.52-4.51V18.8A4.52,4.52,0,0,0,44.1,14.28ZM33.7,66.08a3,3,0,1,1,3-3A3,3,0,0,1,33.7,66.08ZM45.07,58.6H22.33v-34H45.07Z"/><path class="cls-2" d="M65.65,22.5l-1.26,3.83H62.76L66.9,14.15h1.89L73,26.33H71.27L70,22.5Zm4-1.23-1.21-3.5c-.25-.8-.43-1.52-.61-2.23h0c-.17.71-.37,1.47-.6,2.21L66,21.27Z"/><path class="cls-2" d="M74.57,17.58l1.72,4.9c.29.81.52,1.54.71,2.26h0c.2-.72.45-1.45.74-2.26l1.7-4.9h1.66l-3.43,8.75H76.2l-3.32-8.75Z"/><path class="cls-2" d="M88.46,24.23a14.77,14.77,0,0,0,.13,2.1H87.16L87,25.23h0a3.26,3.26,0,0,1-2.68,1.3A2.49,2.49,0,0,1,81.62,24c0-2.12,1.88-3.27,5.25-3.26v-.18a1.79,1.79,0,0,0-2-2,4.21,4.21,0,0,0-2.3.65l-.36-1.07a5.7,5.7,0,0,1,2.89-.75c2.69,0,3.34,1.82,3.34,3.57Zm-1.55-2.37c-1.73,0-3.7.28-3.7,2a1.39,1.39,0,0,0,1.48,1.52,2.21,2.21,0,0,0,2.15-1.46,1.79,1.79,0,0,0,.07-.51Z"/><path class="cls-2" d="M91.68,16a1,1,0,0,1,0-2,1,1,0,0,1,1,1,1,1,0,0,1-1,1Zm-.76,10.35V17.58h1.59v8.75Z"/><path class="cls-2" d="M95.06,13.5h1.58V26.33H95.06Z"/><path class="cls-2" d="M105.35,24.23a14.77,14.77,0,0,0,.13,2.1h-1.43l-.15-1.1h-.05a3.25,3.25,0,0,1-2.67,1.3A2.5,2.5,0,0,1,98.5,24c0-2.12,1.88-3.27,5.26-3.26v-.18a1.8,1.8,0,0,0-2-2,4.15,4.15,0,0,0-2.29.65l-.36-1.07a5.67,5.67,0,0,1,2.89-.75c2.69,0,3.34,1.82,3.34,3.57Zm-1.55-2.37c-1.74,0-3.71.28-3.71,2a1.4,1.4,0,0,0,1.48,1.52,2.2,2.2,0,0,0,2.15-1.46,1.51,1.51,0,0,0,.08-.51Z"/><path class="cls-2" d="M107.8,13.5h1.59V19h0a3.23,3.23,0,0,1,3-1.59c2.17,0,3.69,1.8,3.69,4.44,0,3.14-2,4.7-3.94,4.7a3.14,3.14,0,0,1-2.93-1.65h0l-.1,1.45h-1.37c.06-.6.07-1.48.07-2.26Zm1.59,9.32a2.72,2.72,0,0,0,.06.58,2.47,2.47,0,0,0,2.38,1.86c1.68,0,2.66-1.35,2.66-3.36,0-1.77-.9-3.27-2.6-3.27a2.53,2.53,0,0,0-2.41,1.95,2.71,2.71,0,0,0-.09.67Z"/><path class="cls-2" d="M118,13.5h1.59V26.33H118Z"/><path class="cls-2" d="M123,22.23a2.78,2.78,0,0,0,3,3,6.12,6.12,0,0,0,2.42-.43l.29,1.12a7.2,7.2,0,0,1-2.93.56,4.08,4.08,0,0,1-4.3-4.41c0-2.65,1.58-4.73,4.12-4.73,2.85,0,3.6,2.51,3.6,4.12a3.64,3.64,0,0,1-.06.75Zm4.64-1.14a2.28,2.28,0,0,0-2.19-2.59,2.62,2.62,0,0,0-2.43,2.59Z"/><path class="cls-2" d="M138.38,26.53a4.17,4.17,0,0,1-4.19-4.5,4.27,4.27,0,0,1,4.34-4.64,4.12,4.12,0,0,1,4.2,4.47,4.29,4.29,0,0,1-4.33,4.67Zm.05-1.2c1.52,0,2.66-1.42,2.66-3.41,0-1.48-.74-3.34-2.62-3.34S135.8,20.31,135.8,22c0,1.92,1.08,3.36,2.62,3.36Z"/><path class="cls-2" d="M144.65,20c0-.92,0-1.64-.08-2.37H146l.09,1.43h0A3.23,3.23,0,0,1,149,17.39c1.21,0,3.09.72,3.09,3.72v5.22H150.5v-5c0-1.41-.52-2.6-2-2.6a2.31,2.31,0,0,0-2.14,1.62,2.45,2.45,0,0,0-.1.74v5.28h-1.59Z"/><path class="cls-2" d="M160.23,15.49v2.09h2.28v1.21h-2.28v4.72c0,1.08.31,1.7,1.19,1.7a3.09,3.09,0,0,0,.93-.11l.07,1.21a4.32,4.32,0,0,1-1.41.22,2.3,2.3,0,0,1-1.72-.67,3.46,3.46,0,0,1-.61-2.3V18.79h-1.35V17.58h1.35V16Z"/><path class="cls-2" d="M164.21,13.5h1.59V19h0A2.74,2.74,0,0,1,167,17.84a3.09,3.09,0,0,1,1.63-.45c1.17,0,3.05.72,3.05,3.74v5.2h-1.59v-5c0-1.43-.53-2.61-2-2.61a2.32,2.32,0,0,0-2.13,1.59,2,2,0,0,0-.1.76v5.28h-1.59Z"/><path class="cls-2" d="M175,22.23a2.78,2.78,0,0,0,3,3,6.12,6.12,0,0,0,2.42-.43l.29,1.12a7.16,7.16,0,0,1-2.93.56,4.07,4.07,0,0,1-4.29-4.41c0-2.65,1.57-4.73,4.11-4.73,2.86,0,3.6,2.51,3.6,4.12a4.72,4.72,0,0,1-.05.75Zm4.64-1.14a2.27,2.27,0,0,0-2.18-2.59,2.62,2.62,0,0,0-2.44,2.59Z"/><path class="cls-2" d="M187.59,16a1,1,0,0,1,0-2,1,1,0,0,1,1,1,1,1,0,0,1-1,1Zm-.76,10.35V17.58h1.59v8.75Z"/><path class="cls-2" d="M191,14.31a16.72,16.72,0,0,1,3-.25,4.94,4.94,0,0,1,3.41,1,3.26,3.26,0,0,1,1.09,2.54,3.53,3.53,0,0,1-1,2.6,5,5,0,0,1-3.72,1.34,5.37,5.37,0,0,1-1.26-.11v4.88H191Zm1.58,5.86a5.37,5.37,0,0,0,1.3.12c1.91,0,3-.93,3-2.58s-1.14-2.4-2.87-2.4a7.31,7.31,0,0,0-1.48.13Z"/><path class="cls-2" d="M200.4,13.5H202V19h0a2.86,2.86,0,0,1,1.14-1.12,3.09,3.09,0,0,1,1.63-.45c1.17,0,3.05.72,3.05,3.74v5.2h-1.59v-5c0-1.43-.52-2.61-2-2.61a2.31,2.31,0,0,0-2.13,1.59,2,2,0,0,0-.11.76v5.28H200.4Z"/><path class="cls-2" d="M213.89,26.53A4.17,4.17,0,0,1,209.7,22,4.27,4.27,0,0,1,214,17.39a4.12,4.12,0,0,1,4.2,4.47,4.29,4.29,0,0,1-4.33,4.67Zm.06-1.2c1.51,0,2.65-1.42,2.65-3.41,0-1.48-.74-3.34-2.62-3.34s-2.67,1.73-2.67,3.39c0,1.92,1.08,3.36,2.62,3.36Z"/><path class="cls-2" d="M220.16,20c0-.92,0-1.64-.08-2.37h1.41l.09,1.43h0a3.24,3.24,0,0,1,2.89-1.62c1.21,0,3.09.72,3.09,3.72v5.22H226v-5c0-1.41-.53-2.6-2-2.6a2.28,2.28,0,0,0-2.13,1.62,2.17,2.17,0,0,0-.12.74v5.28h-1.58Z"/><path class="cls-2" d="M231,22.23a2.78,2.78,0,0,0,3,3,6.08,6.08,0,0,0,2.42-.43l.29,1.12a7.14,7.14,0,0,1-2.92.56,4.08,4.08,0,0,1-4.3-4.41c0-2.65,1.57-4.73,4.12-4.73,2.85,0,3.59,2.51,3.59,4.12a4.72,4.72,0,0,1,0,.75Zm4.65-1.14a2.28,2.28,0,0,0-2.19-2.59A2.63,2.63,0,0,0,231,21.09Z"/><path class="cls-2" d="M73.13,34.57,62.43,66.1h4.9l3.2-9.68H80.9l3.28,9.68h5L78.47,34.57Zm2.55,5.19c.36,1.4.75,2.86,1.25,4.44l2.88,8.36H71.6l2.85-8.41C74.88,42.78,75.29,41.31,75.68,39.76Z"/><path class="cls-2" d="M103.08,42.74a8.93,8.93,0,0,0-7.58,3.64l-.19-3.13H91l0,.4c.13,2,.18,4.1.18,7.19V75.13h4.77V63.8a8.39,8.39,0,0,0,6.52,2.8,9.8,9.8,0,0,0,7.23-3.08,13,13,0,0,0,3.19-9.17A12.72,12.72,0,0,0,110.09,46,9.08,9.08,0,0,0,103.08,42.74Zm-1.19,3.95c4.25,0,6.16,3.94,6.16,7.84,0,5-2.43,8.16-6.34,8.16a5.78,5.78,0,0,1-5.62-4.42,6.13,6.13,0,0,1-.17-1.54V52.89a6.64,6.64,0,0,1,.16-1.18l.06-.38A6.06,6.06,0,0,1,101.89,46.69Z"/><path class="cls-2" d="M127.64,42.74a8.93,8.93,0,0,0-7.58,3.64l-.19-3.13h-4.36l0,.4c.13,2,.18,4.1.18,7.19V75.13h4.78V63.8A8.35,8.35,0,0,0,127,66.6a9.8,9.8,0,0,0,7.23-3.08,13,13,0,0,0,3.19-9.17A12.72,12.72,0,0,0,134.65,46,9.08,9.08,0,0,0,127.64,42.74Zm-1.19,3.95c4.25,0,6.16,3.94,6.16,7.84,0,5-2.43,8.16-6.34,8.16a5.77,5.77,0,0,1-5.62-4.42,6.17,6.17,0,0,1-.16-1.54V52.89a6.57,6.57,0,0,1,.15-1.18c0-.13,0-.26.07-.38A6,6,0,0,1,126.45,46.69Z"/><path class="cls-2" d="M158.41,47.93c-4.45-1.72-5.88-3.08-5.88-5.58,0-2.11,1.68-4.24,5.42-4.24a10.87,10.87,0,0,1,5.6,1.4l.41.25,1.34-4-.26-.15a13.82,13.82,0,0,0-6.95-1.56c-6.08,0-10.33,3.59-10.33,8.73,0,4.15,2.66,7,8.37,9.12,4.05,1.51,5.56,3.06,5.56,5.72,0,3-2.33,4.87-6.07,4.87a13,13,0,0,1-6.87-1.95l-.41-.26-1.28,4.07.23.16a16.36,16.36,0,0,0,8.06,2.07c8.2,0,11.1-5,11.1-9.28S164.12,50.18,158.41,47.93Z"/><path class="cls-2" d="M175,37.82l-4.68,1.46v4h-3.42v3.81h3.42V58.73c0,2.83.54,4.81,1.65,6.06a6.16,6.16,0,0,0,4.62,1.81,11.26,11.26,0,0,0,3.68-.57l.27-.1-.23-3.82-.45.15a7.45,7.45,0,0,1-2.22.25c-1.85,0-2.64-1.17-2.64-3.91V47.06h5.75V43.25H175Z"/><path class="cls-2" d="M192.61,42.74c-6.67,0-11.33,5-11.33,12.11,0,6.92,4.51,11.75,11,11.75h0c5.46,0,11.33-3.81,11.33-12.16a12.07,12.07,0,0,0-3-8.43A10.62,10.62,0,0,0,192.61,42.74Zm-.14,3.77c4.3,0,6.25,4.18,6.25,8.07,0,4.78-2.67,8.25-6.34,8.25h0c-3.62,0-6.24-3.41-6.24-8.11C186.1,50.63,188.07,46.51,192.47,46.51Z"/><path class="cls-2" d="M218.23,43l-.28-.08a4.85,4.85,0,0,0-1.19-.15,6.82,6.82,0,0,0-6,3.84l-.14-3.33h-4.28l0,.4c.12,1.89.18,4,.18,6.87l0,15.58h4.77V53.94a13.2,13.2,0,0,1,.13-1.85c.54-2.92,2.51-4.81,5-4.81a12,12,0,0,1,1.28.08l.51.06Z"/><path class="cls-2" d="M229,42.7c-6.35,0-10.79,5.07-10.79,12.34,0,7,4.41,11.51,11.24,11.51A18.29,18.29,0,0,0,237,65.1l.29-.13-.91-3.55-.4.16a14.77,14.77,0,0,1-6,1.07c-2.07,0-6.85-.68-7.14-6.92l15.39.05.06-.3a10.36,10.36,0,0,0,.15-2C238.42,48.51,235.94,42.7,229,42.7Zm-.32,3.63a4.73,4.73,0,0,1,3.5,1.33,6.81,6.81,0,0,1,1.64,4.44H222.91C223.35,49.35,225.07,46.33,228.64,46.33Z"/></g></g></svg>