<svg xmlns="http://www.w3.org/2000/svg" viewBox="0 0 500 177.56"><defs><style>.cls-1{fill:#fff;}.cls-2{fill:#e5e2e2;}.cls-12,.cls-3{fill:#6a86c3;}.cls-4{fill:#432e4a;}.cls-5{fill:#facfb4;}.cls-6{fill:#f29483;}.cls-7{fill:#fff9f4;}.cls-8{fill:#f8c3a9;}.cls-9{fill:#fce4da;}.cls-10{fill:#98c0e7;}.cls-11{fill:#dce9f8;}.cls-12{font-size:35.21px;font-family:Ubuntu-Bold, Ubuntu;font-weight:700;}</style></defs><title>img.diagnóstico</title><g id="Capa_2" data-name="Capa 2"><g id="home"><rect class="cls-1" x="1.25" y="1.26" width="497.49" height="175.05" rx="23.89"/><path class="cls-2" d="M474.85,2.51a22.66,22.66,0,0,1,22.63,22.64V152.41a22.66,22.66,0,0,1-22.63,22.64H25.15A22.67,22.67,0,0,1,2.51,152.41V25.15A22.67,22.67,0,0,1,25.15,2.51Zm0-2.51H25.15A25.15,25.15,0,0,0,0,25.15V152.41a25.15,25.15,0,0,0,25.15,25.15h449.7A25.15,25.15,0,0,0,500,152.41V25.15A25.15,25.15,0,0,0,474.85,0Z"/><path class="cls-3" d="M188.13,88.78a79,79,0,1,1-79-79,79,79,0,0,1,79,79"/><path class="cls-1" d="M184.1,88.78a74.95,74.95,0,1,1-74.94-74.95,74.94,74.94,0,0,1,74.94,75"/><path class="cls-4" d="M81.24,97.3a.39.39,0,0,1-.27-.1,12.19,12.19,0,0,1-3.17-4.27c-1.24-2.6-2.33-7-.55-12.94a88.89,88.89,0,0,1,3.48-9.52c1.93-4.63,3.33-8,3.45-15.07a.42.42,0,0,1,.45-.44.45.45,0,0,1,.43.45c-.12,7.26-1.62,10.86-3.51,15.41a83.52,83.52,0,0,0-3.45,9.42c-3.25,10.93,3.34,16.21,3.41,16.27a.44.44,0,0,1,.08.62.46.46,0,0,1-.35.17"/><path class="cls-4" d="M117.41,27.57a8.71,8.71,0,1,1-8.59-8.83,8.7,8.7,0,0,1,8.59,8.83"/><path class="cls-4" d="M80.39,94.18s2.68,5.21,13.16,6.82a49.07,49.07,0,0,0,13-.11c4.81-.51,9.24-1,13.67.47,8.12,2.73,19.67-1.34,21.9-4.78s.85-40.91-5.65-47S96.6,39,89.56,46.47s-13.84,43.6-9.17,47.71"/><path class="cls-4" d="M139.93,63.18a28.71,28.71,0,1,1-28.31-29.09,28.69,28.69,0,0,1,28.31,29.09"/><path class="cls-5" d="M87.77,62.27s2,34.81,25.59,35.75,22.4-48.13,13.76-52.6S82.94,42.68,87.77,62.27"/><path class="cls-6" d="M112.13,69.16s4.75,10.61,3.61,11.35-4.53.69-5.47-.08,0-12.43,1.86-11.27"/><path class="cls-4" d="M105.16,72.91A2.22,2.22,0,1,1,103,70.65a2.21,2.21,0,0,1,2.16,2.26"/><path class="cls-4" d="M124.13,71.42A2.21,2.21,0,1,1,122,69.15a2.21,2.21,0,0,1,2.15,2.27"/><path class="cls-4" d="M105.87,43.26s-8.34,4.28-9.77,12S96,82.56,87,81.87c0,0-18.24-38.44,18.87-38.61"/><path class="cls-4" d="M110.32,43.32c-.75.56,8.72.32,14.3,6.75s7.25,22.82,8.09,23.1,3.7-20.43-2.38-26.49-15.72-6.59-20-3.36"/><path class="cls-5" d="M130.71,74.62s2-8.78,6.06-5.76.66,12.21-3.21,13.12-4.89-2.82-2.85-7.36"/><path class="cls-5" d="M93.54,74.11s-1.81-8.83-5.9-5.92-1,12.18,2.84,13.2,5-2.68,3.06-7.28"/><path class="cls-4" d="M120.85,63.61s4.16-2.2,6.73,1c2.26,2.77-2.89.53-4.79.89s-4.4.2-1.94-1.85"/><path class="cls-4" d="M104.29,64.41s-4.26-2-6.67,1.3c-2.11,2.89,2.92.38,4.83.64s4.41,0,1.84-1.94"/><path class="cls-4" d="M119.34,87s-2.72-4.11-5.66-3.85-5.19,4-5.59,4.2c0,0,4.59,2.16,11.25-.35"/><path class="cls-7" d="M102.81,82.4h-.11a7.65,7.65,0,0,1-7.54-7.75,7.7,7.7,0,0,1,7.65-7.56h.11a7.65,7.65,0,0,1-.11,15.3m0-14.42a6.79,6.79,0,0,0-6.76,6.68,6.76,6.76,0,0,0,6.67,6.86h.09A6.77,6.77,0,0,0,102.9,68Z"/><path class="cls-7" d="M121.92,80.87h-.11a7.65,7.65,0,0,1,.11-15.3H122a7.67,7.67,0,0,1,7.54,7.76,7.69,7.69,0,0,1-7.65,7.54m0-14.42A6.77,6.77,0,0,0,121.83,80h.09a6.77,6.77,0,0,0,.1-13.54Z"/><path class="cls-7" d="M95.79,73.55a.4.4,0,0,1-.15,0l-2.83-1a.43.43,0,0,1-.26-.56.44.44,0,0,1,.56-.27l2.84,1a.43.43,0,0,1,.26.56.45.45,0,0,1-.42.29"/><path class="cls-7" d="M128.81,71.54a.45.45,0,0,1-.42-.31.43.43,0,0,1,.29-.55l3.87-1.21a.44.44,0,0,1,.55.29.43.43,0,0,1-.29.55l-3.87,1.21Z"/><path class="cls-4" d="M110.18,51.41s0,8.81,5.26,10.4,18.74.89,18.6-1.27c-1.24-19.43-10.37-18.45-18-20.93-13.37-4.36-24.31,17.48-22.67,22.64s12.93.34,15.34-.39,1.08-6.7,1.47-10.45"/><path class="cls-8" d="M126.65,79.22a8.17,8.17,0,0,0,1.49-1.56,1,1,0,0,1,.45.57c.11.5-.67.8-1.94,1m-7.14.29h-.08a6.77,6.77,0,0,1-3.87-4c4.07.57,9.38.87,11.77,1.75a6.93,6.93,0,0,1-2.68,2.14C123.1,79.5,121.28,79.51,119.51,79.51Zm-3.63,0a15.61,15.61,0,0,0-.71-2.7,7.75,7.75,0,0,0,2.4,2.69h-1.69Zm-8.34,1.22a7.64,7.64,0,0,0,2.37-3.15,8.72,8.72,0,0,0,.22,2.59Zm-4.73.78h-.09a6.71,6.71,0,0,1-4.09-1.45,54.08,54.08,0,0,1,10.9-4.47A6.81,6.81,0,0,1,102.81,81.52Zm-4.44.75c-1.32,0-2.05-.31-1.71-1.12,0,0,.41-.24,1.13-.63a7.41,7.41,0,0,0,2.82,1.56A16.35,16.35,0,0,1,98.37,82.27Z"/><path class="cls-6" d="M110.13,80.18a8.72,8.72,0,0,1-.22-2.59,7.62,7.62,0,0,0,.52-2.19,11.64,11.64,0,0,1,2.25-.25,6.36,6.36,0,0,1,1.1.09l.8.14a8.22,8.22,0,0,0,.59,1.44,15.61,15.61,0,0,1,.71,2.7c-1,0-2,0-2.62.1a29.74,29.74,0,0,0-3.13.56"/><path class="cls-9" d="M100.61,82.08a7.41,7.41,0,0,1-2.82-1.56l.84-.45a6.71,6.71,0,0,0,4.09,1.45h.09a6.81,6.81,0,0,0,6.72-5.92c.31-.08.6-.14.9-.2a7.58,7.58,0,0,1-2.89,5.34c-2.32.52-4.87,1.06-6.93,1.34"/><path class="cls-9" d="M124.65,79.41a6.93,6.93,0,0,0,2.68-2.14,3.83,3.83,0,0,1,.81.39,8.17,8.17,0,0,1-1.49,1.56c-.58.09-1.26.15-2,.19m-5.22.1h-1.86a7.75,7.75,0,0,1-2.4-2.69,8.22,8.22,0,0,1-.59-1.44l1,.14A6.77,6.77,0,0,0,119.43,79.51Z"/><path class="cls-6" d="M103.32,76.55a.44.44,0,0,1-.41-.27.45.45,0,0,1,.25-.58,3.22,3.22,0,0,0,1.42-.87.42.42,0,0,1,.55-.26.47.47,0,0,1,.27.58c-.06.16-.36.74-1.91,1.37a.34.34,0,0,1-.17,0"/><path class="cls-6" d="M121.5,75.62a4.66,4.66,0,0,1-1.9-.56.46.46,0,0,1-.21-.6.45.45,0,0,1,.59-.2,3.07,3.07,0,0,0,1.61.47.43.43,0,0,1,.56.24.47.47,0,0,1-.26.59.89.89,0,0,1-.39.06"/><path class="cls-7" d="M110,74.88a.44.44,0,0,1,0-.87l4.74-.49a.44.44,0,0,1,.48.39.44.44,0,0,1-.39.49l-4.74.48Z"/><path class="cls-4" d="M103.45,36a.43.43,0,0,1-.19,0,7.6,7.6,0,0,1-4.51-5.17c-1.07-4.9,3.31-10.32,3.49-10.55a.46.46,0,0,1,.63-.06.44.44,0,0,1,.06.62c0,.05-4.3,5.33-3.32,9.81a6.77,6.77,0,0,0,4,4.55.44.44,0,0,1,.21.59.45.45,0,0,1-.4.25"/><path class="cls-4" d="M113.53,37.35a.41.41,0,0,1-.33-.15.42.42,0,0,1,0-.61c0-.05,5.1-4.55,4.87-9.14a6.76,6.76,0,0,0-3.23-5.16.44.44,0,0,1-.1-.61.45.45,0,0,1,.62-.11,7.65,7.65,0,0,1,3.6,5.84c.25,5-5,9.64-5.18,9.84a.49.49,0,0,1-.3.1"/><path class="cls-4" d="M139.79,95.32a.43.43,0,0,1-.34-.16.43.43,0,0,1,.07-.62c0-.05,5.86-4.9,4.17-12.57a84.39,84.39,0,0,0-3-9.66c-2.08-6-4.24-12.15-4.42-18.14a.44.44,0,0,1,.43-.46.46.46,0,0,1,.45.43c.17,5.85,2.31,12,4.37,17.88a89.24,89.24,0,0,1,3,9.76c1.8,8.21-4.42,13.39-4.49,13.44a.48.48,0,0,1-.28.1"/><path class="cls-4" d="M141.36,63.79h0a.45.45,0,0,1-.4-.49c.76-7.72-.86-14-4.83-18.63-6.39-7.48-16.76-8.16-16.87-8.17a.44.44,0,0,1,0-.88c.11,0,10.87.72,17.49,8.47,4.14,4.84,5.83,11.33,5,19.3a.44.44,0,0,1-.44.4"/><path class="cls-6" d="M109.74,87.87s4.4-3.09,8.33-.45c0,0-4.58,1.72-8.33.45"/><path class="cls-6" d="M112.66,91l-1,0a.44.44,0,0,1-.43-.44.43.43,0,0,1,.45-.44,25.39,25.39,0,0,0,4-.13.44.44,0,0,1,.57.25.44.44,0,0,1-.25.57,16,16,0,0,1-3.26.21"/><path class="cls-6" d="M91.24,79h-.12a.44.44,0,0,1-.3-.55,7.18,7.18,0,0,0-2-7.14.44.44,0,1,1,.58-.67,8,8,0,0,1,2.3,8,.43.43,0,0,1-.42.32"/><path class="cls-6" d="M132.43,80h0a.45.45,0,0,1-.42-.47,13.63,13.63,0,0,1,2.89-8,.44.44,0,1,1,.65.6,13,13,0,0,0-2.66,7.44.44.44,0,0,1-.44.41"/><path class="cls-5" d="M123.57,94.42s1.4,15.7-.46,18.19-13.66.62-16.77,0-3.11-26.6-2.48-24.84c5.18,14.49,19.35,1.67,19.71,6.65"/><path class="cls-6" d="M105,96a21.32,21.32,0,0,0,17.89-.84s.74,5.85,0,7.2-15.82,2.31-18.79-4.34c0,0,0-2.31.9-2"/><path class="cls-10" d="M166.73,136.76c-1.37-11-3.61-19.5-7.17-22.19-13.57-10.24-73.31-5.12-87.38,3.63-4.62,2.87-7.6,14.74-9.51,29.37a74.94,74.94,0,0,0,104.06-10.81"/><path class="cls-6" d="M113.35,110.75S109.17,147,111,152c.72,2,.79,6.61.58,11.7-.8,0-1.61,0-2.41,0A74.64,74.64,0,0,1,79,157.43c1.26-19.32,4.49-43.16,6.38-49.87C88.66,96,113,102.8,113.35,110.75"/><path class="cls-5" d="M47.26,66.39s9.05,17.34,15.4,17.5S90.4,58,98.29,57.73s14.67.49,14.7-1.39-11-3.93-11-3.93,15.92,1,12.63-.73-11.18-3.31-11.18-3.31,11.44.46,11.52-.76-11.91-3-11.91-3,14.6-.47,11.93-2.48-7.7-1.14-21.29.94S49.37,63.27,47.26,66.39"/><path class="cls-10" d="M63.14,65.56S77.62,74.19,71.32,84C64.6,94.37,65,91.28,63.82,95.5s18,12.41,18.84,16c.69,2.85-4.8,31.15-11.31,42A75,75,0,0,1,37.41,67.05c9.05-6.14,18.71-8.21,25.73-1.49"/><path class="cls-10" d="M135.2,110.73s32.09-6.13,40.81,9.84l.54,1A75.33,75.33,0,0,1,144.34,155c1.83-2.69,3.69-4.54,5.38-5.07,8.27-2.59-14.52-39.17-14.52-39.17"/><path class="cls-6" d="M157,111.2s.4-2.52-12-7.9c-9.91-4.29-18.41,3-33.54,3.73S97.7,101.81,87,104.6c-16.51,4.3-3.37,15.13,2,16.34S112.1,152.12,157,111.2"/><path class="cls-1" d="M113.8,81s0,1,.55,1.11a1.22,1.22,0,0,0,1.39-1.61,15.17,15.17,0,0,1-1.94.5"/><path class="cls-11" d="M155.6,147.61a12.75,12.75,0,0,0-1.37-6.52c-3.43-6.47-3.1-16-3.08-16.45a.88.88,0,0,1,1.76.06c0,.1-.32,9.52,2.88,15.56a14.06,14.06,0,0,1,1.56,5.92c-.58.48-1.16,1-1.75,1.43"/><path class="cls-11" d="M61.43,146.57c.72-4.34,2.58-14.36,4.93-19.65a79.08,79.08,0,0,0,4.41-13.25.88.88,0,0,1,1.06-.66.87.87,0,0,1,.66,1A79.71,79.71,0,0,1,68,127.63c-2.43,5.49-4.39,16.72-5,20.21-.53-.41-1.06-.84-1.58-1.27"/><path class="cls-11" d="M48.51,99.42a62.16,62.16,0,0,1-7.88-.51.89.89,0,0,1-.77-1,.9.9,0,0,1,1-.77,52.87,52.87,0,0,0,18.33-.62,17.78,17.78,0,0,0-6.11-.89c-5.07.24-12.48-4.29-12.79-4.48a.88.88,0,1,1,.92-1.5c.08,0,7.27,4.44,11.77,4.22,4.3-.23,9.38,1.68,9.84,2.5a.92.92,0,0,1,0,1,1,1,0,0,1-.85.38c-.14,0-.55.12-1,.22a51,51,0,0,1-12.46,1.47"/><path class="cls-11" d="M70.21,80.45a.87.87,0,0,1-.79-.5s-2.23-4.52-6-6.3c-4.27-2-9.08-9-9.29-9.34a.88.88,0,0,1,1.46-1c0,.07,4.76,6.93,8.58,8.74,4.33,2,6.72,6.92,6.82,7.13a.88.88,0,0,1-.41,1.17.92.92,0,0,1-.39.09"/><path class="cls-5" d="M111.23,131.76h-.1a.44.44,0,0,1-.33-.53c0-.1,2.12-9.3,2.73-14,1-7.3-2.3-9.83-2.33-9.86a.45.45,0,0,1-.09-.62.42.42,0,0,1,.61-.09c.15.11,3.73,2.83,2.69,10.68-.62,4.72-2.74,14-2.76,14.06a.43.43,0,0,1-.42.34"/><path class="cls-5" d="M85.19,118.48l-.88-.1s.68-5.95,1-8.89a20.8,20.8,0,0,1,1.24-5.06.45.45,0,0,1,.58-.23.43.43,0,0,1,.24.57,19.78,19.78,0,0,0-1.18,4.83c-.36,2.93-1,8.88-1,8.88"/><path class="cls-1" d="M157.49,104.13a1.46,1.46,0,0,1-1.3-.83c-1.1-1.86-1.45-2-3.78-1.79-2.09.22-2.85-1.29-3.34-2.29a3.13,3.13,0,0,0-.48-.78c-.38-.34-1.41,0-1.86.21l-.39-.79c.2-.1,1.9-.9,2.84-.08a3.35,3.35,0,0,1,.68,1c.47,1,1,2,2.46,1.82,2.66-.28,3.35,0,4.63,2.21.34.57.66.51,1.67,0,.76-.4,1.92-1,2.7.21l-.74.48c-.31-.48-.6-.41-1.56.09a3.56,3.56,0,0,1-1.53.51"/><text class="cls-12" transform="translate(241.32 99.05)">Dia</text><text class="cls-12" transform="translate(297.27 99.05)">gnóst</text><text class="cls-12" transform="translate(393.36 99.05)">ic</text><text class="cls-12" transform="translate(419.2 99.05)">o</text></g></g></svg>