<svg xmlns="http://www.w3.org/2000/svg" xmlns:xlink="http://www.w3.org/1999/xlink" viewBox="0 0 255.35 83.53"><defs><style>.cls-1{fill:none;}.cls-2{fill:#1d1d1b;}.cls-3{clip-path:url(#clip-path);}.cls-4{fill:url(#linear-gradient);}.cls-5{fill:url(#linear-gradient-2);}.cls-6{fill:url(#linear-gradient-3);}.cls-7{fill:url(#linear-gradient-4);}.cls-8{fill:#f9f9f9;}.cls-9{fill:#fcfcfc;}</style><clipPath id="clip-path"><path class="cls-1" d="M55.34,36.77,43.82,30.12,21.61,17.3c-1.23-.72-2.46-.29-2.46,1.2V70.75c0,1.11.88,1.59,2,1L43.82,58.61,55.34,52,66.4,45.57c1.3-.75,1.18-1.78.08-2.37S55.34,36.77,55.34,36.77Z"/></clipPath><linearGradient id="linear-gradient" x1="33.41" y1="16.08" x2="33.41" y2="72.65" gradientUnits="userSpaceOnUse"><stop offset="0" stop-color="#207ab0"/><stop offset="0.32" stop-color="#4a98b5"/><stop offset="0.78" stop-color="#81c0bb"/><stop offset="1" stop-color="#97cfbe"/></linearGradient><linearGradient id="linear-gradient-2" x1="19.15" y1="30.12" x2="55.34" y2="30.12" gradientUnits="userSpaceOnUse"><stop offset="0" stop-color="#59bbaa"/><stop offset="1" stop-color="#e6e89a"/></linearGradient><linearGradient id="linear-gradient-3" x1="37.24" y1="44.36" x2="37.24" y2="72.85" gradientUnits="userSpaceOnUse"><stop offset="0" stop-color="#e43332"/><stop offset="0.16" stop-color="#d43643"/><stop offset="0.73" stop-color="#a23e7a"/><stop offset="1" stop-color="#8e4190"/></linearGradient><linearGradient id="linear-gradient-4" x1="58.09" y1="36.77" x2="58.09" y2="51.96" gradientUnits="userSpaceOnUse"><stop offset="0" stop-color="#f08779"/><stop offset="0.63" stop-color="#f8b474"/><stop offset="1" stop-color="#fcca72"/></linearGradient></defs><title>img.google.play</title><g id="Capa_2" data-name="Capa 2"><g id="home"><rect class="cls-2" width="255.35" height="83.53" rx="11.29"/><g id="PLAY"><g class="cls-3"><polygon class="cls-4" points="19.15 16.08 19.15 44.36 19.15 72.64 47.68 44.36 19.15 16.08"/><polygon class="cls-5" points="55.34 36.77 43.82 30.12 19.15 15.88 19.15 16.08 47.68 44.36 55.34 36.77"/><polygon class="cls-6" points="19.15 72.64 19.15 72.85 43.82 58.61 55.34 51.96 47.68 44.36 19.15 72.64"/><polygon class="cls-7" points="55.34 36.77 47.68 44.36 55.34 51.96 68.5 44.36 55.34 36.77"/></g></g><path class="cls-8" d="M198.72,55.42a7.2,7.2,0,0,1-2.93-.59A5.55,5.55,0,0,1,193.56,53h-.18a22.33,22.33,0,0,1,.18,2.74V62.5h-2.49V38.67h2l.34,2.25h.12a5.8,5.8,0,0,1,2.24-2,6.77,6.77,0,0,1,2.92-.6,6.1,6.1,0,0,1,5.06,2.24,9.87,9.87,0,0,1,1.77,6.27,9.84,9.84,0,0,1-1.8,6.3A6.12,6.12,0,0,1,198.72,55.42Zm-.36-14.93a4.4,4.4,0,0,0-3.64,1.39,7.19,7.19,0,0,0-1.16,4.45v.55c0,2.31.39,4,1.16,5a4.37,4.37,0,0,0,3.7,1.49,3.83,3.83,0,0,0,3.34-1.72A8.16,8.16,0,0,0,203,46.85a7.86,7.86,0,0,0-1.21-4.72A3.94,3.94,0,0,0,198.36,40.49Z"/><path class="cls-8" d="M211.32,55.12h-2.49V31.77h2.49Z"/><path class="cls-8" d="M225.65,55.12l-.5-2.34H225a6.89,6.89,0,0,1-2.45,2.09,7.44,7.44,0,0,1-3.06.55,5.48,5.48,0,0,1-3.83-1.26,4.59,4.59,0,0,1-1.39-3.59q0-5,8-5.22l2.79-.09v-1a4.19,4.19,0,0,0-.83-2.86,3.43,3.43,0,0,0-2.67-.92,10.85,10.85,0,0,0-4.65,1.26l-.76-1.91a12.11,12.11,0,0,1,5.56-1.41,6.2,6.2,0,0,1,4.36,1.31,5.42,5.42,0,0,1,1.42,4.18V55.12ZM220,53.36a5,5,0,0,0,3.65-1.27A4.7,4.7,0,0,0,225,48.52V47l-2.49.1a9.16,9.16,0,0,0-4.29.93,2.78,2.78,0,0,0-1.31,2.54,2.56,2.56,0,0,0,.82,2.06A3.39,3.39,0,0,0,220,53.36Z"/><path class="cls-8" d="M228.94,38.67h2.67l3.6,9.38a35.66,35.66,0,0,1,1.47,4.64h.12c.13-.51.41-1.38.82-2.62s1.78-5,4.08-11.4h2.67L237.3,57.4a9.27,9.27,0,0,1-2.46,3.94,5.17,5.17,0,0,1-3.44,1.16,10,10,0,0,1-2.25-.25v-2a8.63,8.63,0,0,0,1.84.18q2.58,0,3.67-2.88l.91-2.34Z"/><path class="cls-8" d="M152.57,40.2A5.79,5.79,0,0,1,155,44.84c0,2.55-1.44,3.76-2.89,4.89a2.41,2.41,0,0,0-1,1.69,1.89,1.89,0,0,0,.89,1.48l1.24,1c1.52,1.27,2.89,2.44,2.89,4.82,0,3.23-3.13,6.5-9.05,6.5-5,0-7.39-2.37-7.39-4.92a4.94,4.94,0,0,1,2.65-4.2c2.13-1.31,5-1.48,6.57-1.58a3.59,3.59,0,0,1-1-2.34,3.07,3.07,0,0,1,.35-1.34c-.38,0-.76.06-1.1.06a5.43,5.43,0,0,1-5.71-5.4,6.18,6.18,0,0,1,2.2-4.61A9.41,9.41,0,0,1,149.82,39h7.08l-2.2,1.24Zm-2.44,15.28a4.85,4.85,0,0,0-.79,0,13.91,13.91,0,0,0-3.62.55c-.75.28-3,1.1-3,3.55s2.38,4.2,6.06,4.2c3.3,0,5.06-1.59,5.06-3.72C153.88,58.26,152.74,57.33,150.13,55.48Zm1-6.54a3.46,3.46,0,0,0,.85-2.51c0-2.48-1.48-6.33-4.33-6.33a3.2,3.2,0,0,0-2.41,1.13,4,4,0,0,0-.76,2.55c0,2.3,1.35,6.12,4.31,6.12A3.54,3.54,0,0,0,151.13,48.94Z"/><path class="cls-8" d="M130.91,54.93a8.11,8.11,0,0,1-8.38-8.11c0-4.5,3.67-8.35,8.9-8.35a8,8,0,0,1,8.2,8.11A8.39,8.39,0,0,1,130.91,54.93Zm4.29-2.79a6.17,6.17,0,0,0,1-3.81c0-3-1.44-8.79-5.7-8.79a4.76,4.76,0,0,0-3.09,1.17,5.19,5.19,0,0,0-1.58,4.19c0,3.4,1.68,9,5.84,9A4.38,4.38,0,0,0,135.2,52.14Z"/><path class="cls-8" d="M112.29,54.93a8.11,8.11,0,0,1-8.38-8.11c0-4.5,3.67-8.35,8.9-8.35A8,8,0,0,1,121,46.58,8.4,8.4,0,0,1,112.29,54.93Zm4.29-2.79a6.18,6.18,0,0,0,1-3.81c0-3-1.45-8.79-5.71-8.79a4.76,4.76,0,0,0-3.09,1.17,5.19,5.19,0,0,0-1.58,4.19c0,3.4,1.68,9,5.84,9A4.38,4.38,0,0,0,116.58,52.14Z"/><path class="cls-8" d="M101.28,54.39l-4.94,1.14a36.6,36.6,0,0,1-5.69.58c-9.54,0-13.16-7-13.16-12.5,0-6.7,5.14-12.91,14-12.91a19.81,19.81,0,0,1,5.28.72,13.55,13.55,0,0,1,4.56,2.14l-2.86,2.73-1.21.28.86-1.39a9.85,9.85,0,0,0-7.39-3.24c-5.46,0-9.57,4.14-9.57,10.19,0,6.49,4.7,12.6,12.23,12.6a10.42,10.42,0,0,0,4.39-.86V48.31l-5.22.27,2.76-1.48h7.33l-.9.86a.8.8,0,0,0-.35.55c0,.31-.07,1.32-.07,1.66Z"/><path class="cls-8" d="M163.49,53.39c-1.14-.1-1.38-.31-1.38-1.66V32.19a1.79,1.79,0,0,1,0-.23c.14-1.2.48-1.41,1.55-2h-4.94l-2.59,1.24h2.64V52.49c0,.69-.14.8-.93,1.83H164l1.28-.75C164.66,53.5,164.07,53.46,163.49,53.39Z"/><path class="cls-8" d="M177.54,53.71c-.38.21-.75.45-1.13.62a8,8,0,0,1-3.33.65,7.3,7.3,0,0,1-4.56-1.34A8.85,8.85,0,0,1,165,46.4a7.78,7.78,0,0,1,7.86-7.92,6.69,6.69,0,0,1,3.53,1,5.71,5.71,0,0,1,2.4,3.4l-8.06,3.26-2.64.2c.85,4.36,3.8,6.89,7.06,6.89A8.92,8.92,0,0,0,179.36,52Zm-3.22-10.22c.65-.24,1-.45,1-.93a3.4,3.4,0,0,0-3.4-3c-1.37,0-3.94,1.07-3.94,4.77,0,.58.07,1.2.1,1.82Z"/><path class="cls-8" d="M180.85,38.72V41h-.27V38.72h-.75v-.24h1.77v.24Z"/><path class="cls-8" d="M183.94,41V38.7h0L183.23,41H183l-.7-2.28h0V41h-.25v-2.5h.43l.63,2h0l.63-2h.43V41Z"/><path class="cls-9" d="M84.35,24H82.63a11.09,11.09,0,0,0-.49-2H79.67a10.46,10.46,0,0,0-.51,2H77.55a35.22,35.22,0,0,1,1.25-3.43A27.51,27.51,0,0,0,80.05,17h2a30.74,30.74,0,0,0,1.13,3.5A31,31,0,0,1,84.35,24Zm-2.48-3A30.93,30.93,0,0,1,81,18h-.08c0,.14-.32,1.13-1,3Z"/><path class="cls-9" d="M91.26,24H89.94a12.69,12.69,0,0,0-1.48-2.32,13.21,13.21,0,0,1-1.76-3h-.08a18.6,18.6,0,0,1,.13,2.12c0,.89,0,2,.08,3.23H85.51c0-1.11.08-2.32.08-3.65s0-2.42-.08-3.33H87.1a10.08,10.08,0,0,0,1.33,2.27,13,13,0,0,1,1.62,2.86h.08A19.38,19.38,0,0,1,90,20c0-1,0-2-.08-3h1.34c-.05.88-.07,2-.07,3.33S91.21,22.88,91.26,24Z"/><path class="cls-9" d="M99,20.24a4,4,0,0,1-1,2.66A3.4,3.4,0,0,1,95.32,24c-.52,0-1.25,0-2.18-.06,0-1.08.07-2.3.07-3.65s0-2.41-.07-3.33h.94l.68,0h.6a3.61,3.61,0,0,1,2.8,1A3.31,3.31,0,0,1,99,20.24Zm-1.47.23a2.59,2.59,0,0,0-.6-1.74,2.27,2.27,0,0,0-1.83-.7,4.32,4.32,0,0,0-.64,0c0,.71.06,1.46.06,2.24s0,1.7,0,2.54a3.33,3.33,0,0,0,.7.07A2,2,0,0,0,97,22.21,2.72,2.72,0,0,0,97.57,20.47Z"/><path class="cls-9" d="M106.2,24h-1.58a10.48,10.48,0,0,0-1-2.34,1.24,1.24,0,0,0-1.07-.45H102c0,.92,0,1.84.05,2.78h-1.49c0-1.08.07-2.3.07-3.65s0-2.41-.07-3.33h.93l.67,0h.95q2.46,0,2.46,1.68a1.89,1.89,0,0,1-1.41,1.86v.08a1.63,1.63,0,0,1,.95.85A17.36,17.36,0,0,1,106.2,24Zm-2-4.93c0-.71-.46-1.07-1.37-1.07a4.73,4.73,0,0,0-.89.07c0,.56.06,1.28.06,2.17h.5C103.62,20.22,104.19,19.83,104.19,19Z"/><path class="cls-9" d="M113.89,20.35a3.85,3.85,0,0,1-1,2.73,3.26,3.26,0,0,1-2.49,1.08,3.14,3.14,0,0,1-2.37-1,3.49,3.49,0,0,1-1-2.53,3.85,3.85,0,0,1,1-2.73,3.29,3.29,0,0,1,2.5-1.08,3.17,3.17,0,0,1,2.37,1A3.51,3.51,0,0,1,113.89,20.35Zm-1.48.16a2.77,2.77,0,0,0-.57-1.82,1.77,1.77,0,0,0-1.42-.7,1.64,1.64,0,0,0-1.33.7,2.84,2.84,0,0,0-.55,1.78,2.77,2.77,0,0,0,.58,1.81,1.76,1.76,0,0,0,1.41.7,1.61,1.61,0,0,0,1.33-.7A2.77,2.77,0,0,0,112.41,20.51Z"/><path class="cls-9" d="M116.92,24h-1.51c0-1.11.06-2.32.06-3.65s0-2.42-.06-3.33h1.51c0,.9-.07,2-.07,3.33S116.88,22.88,116.92,24Z"/><path class="cls-9" d="M124.7,20.24a4,4,0,0,1-1,2.66A3.4,3.4,0,0,1,121,24c-.52,0-1.25,0-2.18-.06,0-1.08.07-2.3.07-3.65s0-2.41-.07-3.33h.94l.68,0h.6a3.61,3.61,0,0,1,2.8,1A3.31,3.31,0,0,1,124.7,20.24Zm-1.47.23a2.59,2.59,0,0,0-.6-1.74,2.27,2.27,0,0,0-1.83-.7,4.32,4.32,0,0,0-.64,0c0,.71.06,1.46.06,2.24s0,1.7,0,2.54a3.33,3.33,0,0,0,.7.07,2,2,0,0,0,1.71-.72A2.72,2.72,0,0,0,123.23,20.47Z"/><path class="cls-9" d="M135,24h-1.72a11.09,11.09,0,0,0-.49-2h-2.47a10.46,10.46,0,0,0-.51,2h-1.61c0-.14.42-1.28,1.25-3.43A27.51,27.51,0,0,0,130.71,17h2a30.74,30.74,0,0,0,1.13,3.5A31,31,0,0,1,135,24Zm-2.48-3a30.93,30.93,0,0,1-.92-3h-.08c0,.14-.32,1.13-.95,3Z"/><path class="cls-9" d="M141.26,18.82a2.08,2.08,0,0,1-.95,1.89,4.19,4.19,0,0,1-2.33.61h-.36c0,.67,0,1.56.06,2.66h-1.51c.05-1,.07-2.25.07-3.65s0-2.4-.07-3.33h.93l.76,0h1a3,3,0,0,1,1.72.46A1.54,1.54,0,0,1,141.26,18.82Zm-1.38.29c0-.76-.51-1.15-1.52-1.15a4.63,4.63,0,0,0-.81.08c0,.68.06,1.45.06,2.3h.31C139.23,20.35,139.88,19.94,139.88,19.11Z"/><path class="cls-9" d="M147.7,18.82a2.09,2.09,0,0,1-1,1.89,4.19,4.19,0,0,1-2.33.61h-.36c0,.67,0,1.56.06,2.66H142.6c.05-1,.07-2.25.07-3.65s0-2.4-.07-3.33h.93l.77,0h1a3,3,0,0,1,1.72.46A1.55,1.55,0,0,1,147.7,18.82Zm-1.39.29c0-.76-.51-1.15-1.52-1.15A4.72,4.72,0,0,0,144,18c0,.68.06,1.45.06,2.3h.31C145.66,20.35,146.31,19.94,146.31,19.11Z"/><path class="cls-9" d="M158.21,20.35a3.81,3.81,0,0,1-1,2.73,3.26,3.26,0,0,1-2.49,1.08,3.17,3.17,0,0,1-2.37-1,3.49,3.49,0,0,1-1-2.53,3.85,3.85,0,0,1,1-2.73,3.3,3.3,0,0,1,2.5-1.08,3.17,3.17,0,0,1,2.37,1A3.51,3.51,0,0,1,158.21,20.35Zm-1.48.16a2.77,2.77,0,0,0-.57-1.82,1.77,1.77,0,0,0-1.42-.7,1.64,1.64,0,0,0-1.33.7,2.84,2.84,0,0,0-.55,1.78,2.77,2.77,0,0,0,.58,1.81,1.77,1.77,0,0,0,1.41.7,1.61,1.61,0,0,0,1.33-.7A2.77,2.77,0,0,0,156.73,20.51Z"/><path class="cls-9" d="M165.48,24h-1.32a13.4,13.4,0,0,0-1.48-2.32,13.21,13.21,0,0,1-1.76-3h-.08a18.6,18.6,0,0,1,.13,2.12c0,.89,0,2,.08,3.23h-1.32c.05-1.11.08-2.32.08-3.65s0-2.42-.08-3.33h1.59a10.26,10.26,0,0,0,1.32,2.27,13,13,0,0,1,1.62,2.86h.08c-.08-.8-.12-1.52-.12-2.15,0-1,0-2-.08-3h1.34c0,.88-.07,2-.07,3.33S165.43,22.88,165.48,24Z"/></g></g></svg>