<svg xmlns="http://www.w3.org/2000/svg" viewBox="0 0 500 177.56"><defs><style>.cls-1{fill:#fff;}.cls-2{fill:#e5e2e2;}.cls-3,.cls-8{fill:#6a86c3;}.cls-4{fill:#f29483;}.cls-5{fill:#facfb4;}.cls-6{fill:#98c0e7;}.cls-7{fill:#dce9f8;}.cls-8{font-size:35.21px;font-family:Ubuntu-Bold, Ubuntu;font-weight:700;}</style></defs><title>img.contagio</title><g id="Capa_2" data-name="Capa 2"><g id="home"><path class="cls-1" d="M25.15,176.3a23.92,23.92,0,0,1-23.9-23.89V25.15a23.93,23.93,0,0,1,23.9-23.9h449.7a23.92,23.92,0,0,1,23.89,23.9V152.41a23.91,23.91,0,0,1-23.89,23.89Z"/><path class="cls-2" d="M474.85,2.51a22.66,22.66,0,0,1,22.63,22.64V152.41a22.66,22.66,0,0,1-22.63,22.64H25.15A22.67,22.67,0,0,1,2.51,152.41V25.15A22.67,22.67,0,0,1,25.15,2.51Zm0-2.51H25.15A25.15,25.15,0,0,0,0,25.15V152.41a25.15,25.15,0,0,0,25.15,25.15h449.7A25.15,25.15,0,0,0,500,152.41V25.15A25.15,25.15,0,0,0,474.85,0Z"/><path class="cls-3" d="M188.13,88.78a79,79,0,1,1-79-79,79,79,0,0,1,79,79"/><path class="cls-1" d="M184.1,88.78a74.95,74.95,0,1,1-74.94-74.95,74.95,74.95,0,0,1,74.94,75"/><path class="cls-4" d="M65,50.91s35.29,47.06,44.12,51,19.9,3,20.86,7.54-18.53-3.13-15.41,3.84,15.23,14.92,15.28,22-19.29-15.07-19.29-15.07,18.24,20.2,12.19,20.68-21.64-19.28-21.64-19.28,17.46,25.92,11.67,23.55S53.32,80.7,45.05,74.14,65,50.91,65,50.91"/><path class="cls-5" d="M167.66,62.33s-40.25,42.9-49.45,45.8-20.11.81-21.57,5.19,18.77-1.07,14.91,5.51S94.77,132,93.94,139s20.83-12.85,20.83-12.85-20.35,18.08-14.4,19.22S124,128.54,124,128.54s-20.21,23.84-14.2,22.12c5.85-1.66,62.91-54.4,74.28-62.46a76.32,76.32,0,0,0-.95-11.39c-5.56-7-15.49-14.48-15.49-14.48"/><path class="cls-6" d="M129.85,88.08s14.37,26.85,27.59,29.71c5.95,1.29,15.4-4,24.54-11.26A75,75,0,0,0,161.33,35c-14.71,10-36.59,34.74-31.48,53.1"/><path class="cls-7" d="M69.86,31.82S97.92,62.07,95.65,74.27s-20.58,26.82-35.33,31.6c-6.26,2-16.2-1.92-25.59-8.21a76.44,76.44,0,0,1-.53-8.88,74.85,74.85,0,0,1,31-60.73,12.51,12.51,0,0,1,4.63,3.77"/><text class="cls-8" transform="translate(241.32 109.16)">C</text><text class="cls-8" transform="translate(263.36 109.16)">ont</text><text class="cls-8" transform="translate(320.05 109.16)">agio</text></g></g></svg>