<svg xmlns="http://www.w3.org/2000/svg" xmlns:xlink="http://www.w3.org/1999/xlink" viewBox="0 0 500 177.57"><defs><style>.cls-1{fill:none;}.cls-2{fill:#fff;}.cls-3{fill:#e5e2e2;}.cls-4{font-size:35.21px;font-family:Ubuntu-Bold, Ubuntu;font-weight:700;}.cls-4,.cls-5{fill:#6a86c3;}.cls-6{clip-path:url(#clip-path);}.cls-7{fill:#98c0e7;fill-rule:evenodd;}.cls-8{fill:#432e4a;}.cls-9{fill:#f29483;}.cls-10{fill:#facfb3;}</style><clipPath id="clip-path"><path class="cls-1" d="M184.2,89.35A75,75,0,1,1,109.25,14.4,75,75,0,0,1,184.2,89.35"/></clipPath></defs><title>img.noticias.flasas</title><g id="Capa_2" data-name="Capa 2"><g id="home"><path class="cls-2" d="M25.15,176.31a23.93,23.93,0,0,1-23.9-23.89V25.15A23.93,23.93,0,0,1,25.15,1.26h449.7a23.92,23.92,0,0,1,23.89,23.89V152.42a23.92,23.92,0,0,1-23.89,23.89Z"/><path class="cls-3" d="M474.85,2.52a22.65,22.65,0,0,1,22.63,22.63V152.42a22.65,22.65,0,0,1-22.63,22.63H25.15A22.66,22.66,0,0,1,2.51,152.42V25.15A22.66,22.66,0,0,1,25.15,2.52Zm0-2.52H25.15A25.15,25.15,0,0,0,0,25.15V152.42a25.15,25.15,0,0,0,25.15,25.15h449.7A25.15,25.15,0,0,0,500,152.42V25.15A25.15,25.15,0,0,0,474.85,0Z"/><text class="cls-4" transform="translate(241.32 88.79)">Not</text><text class="cls-4" transform="translate(305.29 88.79)">icias</text><text class="cls-4" transform="translate(241.32 122.1)">F</text><text class="cls-4" transform="translate(259.98 122.1)">alsa</text><text class="cls-4" transform="translate(327.48 122.1)">s</text><path class="cls-5" d="M188.22,89.35a79,79,0,1,1-79-79,79,79,0,0,1,79,79"/><path class="cls-2" d="M184.2,89.35A75,75,0,1,1,109.25,14.4,75,75,0,0,1,184.2,89.35"/><g class="cls-6"><path class="cls-7" d="M96.3,61.76c-18.07,0-30.3,4.18-30.3,4.18-4.3,1.47-5.61,3.21-7,7.34-4.35,21.24,0,42.23,0,42.23,1,4.09,3.84,5.44,6.16,6.68,0,0,11.87,4.34,30.66,4.34a127.41,127.41,0,0,0,30.2-3.68c5.28-2.09,6.36-4.13,7.34-7.34,6.5-21.28-.14-43.74-.14-43.74-1.32-3.76-2.69-5-5.43-5.61a113.3,113.3,0,0,0-31.46-4.4m58.79,73.44H57.55a7,7,0,0,1-7-7V60.05a7,7,0,0,1,7-7h97.54a7,7,0,0,1,7,7v68.18A7,7,0,0,1,155.09,135.2Z"/><path class="cls-8" d="M126,122.85c5.28-2.09,6.36-4.13,7.34-7.34,6.5-21.28-.14-43.74-.14-43.74-1.32-3.76-2.69-5-5.43-5.61C93.93,56.39,66,65.94,66,65.94c-4.3,1.47-5.61,3.21-7,7.34-4.35,21.24,0,42.23,0,42.23,1,4.09,3.84,5.44,6.16,6.68,0,0,25.45,9.31,60.86.66"/><path class="cls-2" d="M123.14,120.53c4.77-1.88,5.74-3.72,6.63-6.62,5.87-19.22-.13-39.5-.13-39.5-1.19-3.4-2.42-4.5-4.9-5.07C94.19,60.51,69,69.14,69,69.14c-3.87,1.33-5.06,2.9-6.35,6.63-3.92,19.18,0,38.14,0,38.14.94,3.69,3.47,4.91,5.56,6,0,0,23,8.41,55,.59"/><path class="cls-8" d="M102.1,53.88a13.2,13.2,0,0,0-26.37,0Z"/><polygon class="cls-8" points="69.52 153.1 62.31 153.1 57.55 135.2 74.28 135.2 69.52 153.1"/><polygon class="cls-8" points="148.15 153.1 140.94 153.1 136.18 135.2 152.91 135.2 148.15 153.1"/><rect class="cls-8" x="76.08" y="17.44" width="1.4" height="30.61" transform="translate(-5.56 46.42) rotate(-32.53)"/><path class="cls-8" d="M66.67,20.71c.25.39,1.23.21,2.18-.4s1.52-1.42,1.27-1.8-1.22-.22-2.17.39-1.53,1.42-1.28,1.81"/><rect class="cls-8" x="84.11" y="31.46" width="30.61" height="1.4" transform="translate(18.87 98.72) rotate(-57.49)"/><path class="cls-8" d="M109.52,20.12c-.25.39-1.22.21-2.17-.39s-1.53-1.42-1.28-1.81,1.22-.21,2.17.4,1.53,1.41,1.28,1.8"/><path class="cls-9" d="M141.06,72.75a7.39,7.39,0,1,0,7.39-7.39,7.39,7.39,0,0,0-7.39,7.39"/><path class="cls-8" d="M142.79,72.75a5.57,5.57,0,1,0,5.56-5.56,5.56,5.56,0,0,0-5.56,5.56"/><path class="cls-10" d="M155.4,74.2a2,2,0,1,0,0-3.92H141.63a2,2,0,1,0,0,3.92Z"/><path class="cls-9" d="M148.51,84.77a7.39,7.39,0,1,0,7.39,7.39,7.39,7.39,0,0,0-7.39-7.39"/><path class="cls-8" d="M148.51,86.49a5.57,5.57,0,1,0,5.57,5.57,5.56,5.56,0,0,0-5.57-5.57"/><path class="cls-10" d="M147.07,99.1a2,2,0,0,0,3.92,0V85.33a2,2,0,0,0-3.92,0Z"/><rect class="cls-8" x="140.27" y="103.41" width="17.52" height="1.62"/><rect class="cls-8" x="140.27" y="106.47" width="17.52" height="1.62"/><rect class="cls-8" x="140.27" y="109.53" width="17.52" height="1.62"/><rect class="cls-8" x="140.27" y="112.6" width="17.52" height="1.62"/><rect class="cls-8" x="140.27" y="115.66" width="17.52" height="1.62"/><rect class="cls-8" x="140.27" y="118.72" width="17.52" height="1.62"/><rect class="cls-8" x="140.27" y="121.79" width="17.52" height="1.62"/><rect class="cls-8" x="140.27" y="124.85" width="17.52" height="1.62"/><rect class="cls-5" x="64.1" y="91.77" width="64.77" height="0.6"/><rect class="cls-5" x="64.1" y="102.51" width="64.77" height="0.6"/><polygon class="cls-5" points="71.68 101.09 71.68 93.7 76.35 93.7 76.35 94.84 73.02 94.84 73.02 96.73 75.97 96.73 75.97 97.87 73.02 97.87 73.02 101.09 71.68 101.09"/><path class="cls-5" d="M78.88,95.37a3.06,3.06,0,0,1,1.08.17,1.71,1.71,0,0,1,.7.44,1.75,1.75,0,0,1,.37.7,3.16,3.16,0,0,1,.12.9V101l-.91.15a9.21,9.21,0,0,1-1.36.09,3.68,3.68,0,0,1-.91-.1,1.84,1.84,0,0,1-.71-.3,1.45,1.45,0,0,1-.46-.55,2,2,0,0,1-.16-.85,1.51,1.51,0,0,1,.18-.8,1.55,1.55,0,0,1,.51-.54,2.14,2.14,0,0,1,.74-.31,5,5,0,0,1,.88-.08,3.31,3.31,0,0,1,.44,0l.5.09v-.21a1.42,1.42,0,0,0,0-.42.7.7,0,0,0-.19-.36.84.84,0,0,0-.35-.24,1.4,1.4,0,0,0-.55-.09,5.36,5.36,0,0,0-.82.06,5.78,5.78,0,0,0-.6.15l-.16-1a3.9,3.9,0,0,1,.71-.17,5.31,5.31,0,0,1,1-.09m.11,4.81a5,5,0,0,0,.9-.06V98.69l-.3-.06a2.17,2.17,0,0,0-.45,0,2.08,2.08,0,0,0-.43,0,1.24,1.24,0,0,0-.4.11A.81.81,0,0,0,78,99a.83.83,0,0,0,.18,1A1.48,1.48,0,0,0,79,100.18Z"/><path class="cls-5" d="M84,97.69l.52-.55c.19-.2.37-.39.54-.59s.35-.38.51-.57.3-.33.41-.47h1.52l-1.11,1.24c-.4.42-.79.84-1.19,1.24.21.18.43.4.67.65s.46.52.68.8.42.57.62.86a7.08,7.08,0,0,1,.47.79H86.19a8.07,8.07,0,0,0-.45-.69,6,6,0,0,0-.54-.71c-.19-.22-.38-.44-.59-.65a4.41,4.41,0,0,0-.58-.51v2.56H82.74V93L84,92.82Z"/><path class="cls-5" d="M88.08,98.33A3.51,3.51,0,0,1,88.3,97a2.78,2.78,0,0,1,.58-.92,2.56,2.56,0,0,1,.83-.55,2.45,2.45,0,0,1,1-.19,2.29,2.29,0,0,1,1.8.72,3.1,3.1,0,0,1,.64,2.13,2.09,2.09,0,0,1,0,.24c0,.09,0,.17,0,.24H89.41a1.42,1.42,0,0,0,.48,1,1.76,1.76,0,0,0,1.22.38A3.7,3.7,0,0,0,92,100a4.47,4.47,0,0,0,.62-.18l.17,1c-.07,0-.17.07-.29.12l-.43.1-.51.08a5.66,5.66,0,0,1-.57,0,3.33,3.33,0,0,1-1.28-.22,2.43,2.43,0,0,1-.9-.61,2.59,2.59,0,0,1-.52-.92,3.8,3.8,0,0,1-.17-1.15m3.74-.58a1.7,1.7,0,0,0-.07-.51,1.45,1.45,0,0,0-.22-.41,1.17,1.17,0,0,0-.35-.28,1.09,1.09,0,0,0-.5-.1,1.21,1.21,0,0,0-.52.11,1.41,1.41,0,0,0-.38.29,1.47,1.47,0,0,0-.24.42,2.11,2.11,0,0,0-.12.48Z"/><path class="cls-9" d="M102,101.09c-.24-.41-.51-.84-.81-1.31s-.61-.93-.93-1.4-.64-.94-1-1.38-.65-.84-.94-1.2v5.29H97.06V93.7h1.1c.29.3.59.65.92,1.06l1,1.27c.33.45.65.89,1,1.33s.58.86.83,1.24V93.7h1.33v7.39Z"/><path class="cls-9" d="M104.6,98.33a3.51,3.51,0,0,1,.22-1.3,2.93,2.93,0,0,1,.57-.92,2.79,2.79,0,0,1,.83-.55,2.53,2.53,0,0,1,1-.19,2.29,2.29,0,0,1,1.8.72,3.1,3.1,0,0,1,.65,2.13,2.09,2.09,0,0,1,0,.24.9.9,0,0,1,0,.24h-3.67a1.41,1.41,0,0,0,.47,1,1.8,1.8,0,0,0,1.22.38,3.79,3.79,0,0,0,.86-.09,3.9,3.9,0,0,0,.61-.18l.18,1-.3.12a3.26,3.26,0,0,1-.42.1l-.52.08a5.27,5.27,0,0,1-.56,0,3.26,3.26,0,0,1-1.28-.22,2.35,2.35,0,0,1-.9-.61,2.45,2.45,0,0,1-.52-.92,3.51,3.51,0,0,1-.17-1.15m3.74-.58a1.7,1.7,0,0,0-.08-.51,1.08,1.08,0,0,0-.22-.41,1,1,0,0,0-.35-.28,1.07,1.07,0,0,0-.49-.1,1.29,1.29,0,0,0-.53.11,1.53,1.53,0,0,0-.37.29,1.47,1.47,0,0,0-.24.42,2.11,2.11,0,0,0-.12.48Z"/><path class="cls-9" d="M114.34,97.58c-.16.63-.34,1.23-.52,1.83s-.38,1.15-.57,1.68h-1c-.15-.33-.29-.7-.45-1.12s-.32-.87-.47-1.34-.31-1-.47-1.51-.31-1.06-.46-1.61h1.37c.06.3.14.63.22,1s.17.69.27,1,.19.71.29,1,.2.66.3.94c.11-.33.21-.66.31-1l.3-1.05c.09-.34.18-.68.26-1l.22-.93h1q.09.43.21.93c.08.34.16.68.25,1s.18.7.29,1.05.21.68.31,1c.09-.28.19-.6.29-.94s.2-.69.3-1,.18-.71.27-1,.16-.67.22-1h1.34c-.15.55-.31,1.09-.46,1.61s-.32,1-.47,1.51-.32.92-.47,1.34-.31.79-.46,1.12h-1c-.19-.53-.37-1.09-.57-1.68s-.37-1.2-.54-1.83"/><path class="cls-9" d="M120.74,100.16a1.73,1.73,0,0,0,.75-.12.45.45,0,0,0,.23-.42.52.52,0,0,0-.25-.46,3.56,3.56,0,0,0-.83-.4,5.35,5.35,0,0,1-.64-.27,2.31,2.31,0,0,1-.5-.34,1.23,1.23,0,0,1-.34-.46A1.64,1.64,0,0,1,119,97a1.42,1.42,0,0,1,.56-1.2,2.41,2.41,0,0,1,1.54-.45,4.65,4.65,0,0,1,.93.1,3.94,3.94,0,0,1,.67.17l-.23,1a2.43,2.43,0,0,0-.54-.18,3.5,3.5,0,0,0-.77-.08,1.32,1.32,0,0,0-.64.13.44.44,0,0,0-.24.41.51.51,0,0,0,.05.25.56.56,0,0,0,.16.2,2.58,2.58,0,0,0,.31.18,3.35,3.35,0,0,0,.47.18,7.52,7.52,0,0,1,.78.34,2.1,2.1,0,0,1,.52.37,1.37,1.37,0,0,1,.31.48,2,2,0,0,1,.09.64,1.35,1.35,0,0,1-.59,1.2,2.89,2.89,0,0,1-1.69.42,4.23,4.23,0,0,1-1.18-.13c-.3-.08-.51-.15-.63-.19l.22-1.08a5.14,5.14,0,0,0,.69.22,3.6,3.6,0,0,0,.91.11"/><path class="cls-9" d="M96.42,74.56a5.4,5.4,0,0,0-1.48.2,8.71,8.71,0,0,0-1.55.63l-.91-2.46a6.88,6.88,0,0,1,2-.84,9.42,9.42,0,0,1,2.27-.29,6,6,0,0,1,2.29.37,4,4,0,0,1,1.42.93,3.3,3.3,0,0,1,.73,1.24,4.34,4.34,0,0,1,.21,1.29,3.37,3.37,0,0,1-.18,1.12,5.25,5.25,0,0,1-.47,1,6.32,6.32,0,0,1-.65.82l-.72.74-.55.56a4.31,4.31,0,0,0-.51.62,3.8,3.8,0,0,0-.38.68,1.91,1.91,0,0,0-.15.73v.26a1.47,1.47,0,0,0,0,.31H94.94a3.46,3.46,0,0,1-.06-.49c0-.18,0-.34,0-.47a4.12,4.12,0,0,1,.15-1.1,4.68,4.68,0,0,1,.41-.91,4.87,4.87,0,0,1,.57-.8l.68-.72c.33-.33.64-.66.91-1A1.69,1.69,0,0,0,98,75.82a1.18,1.18,0,0,0-.41-.89,1.72,1.72,0,0,0-1.18-.37m2,11A1.81,1.81,0,0,1,97.82,87a2.1,2.1,0,0,1-1.4.52A2.12,2.12,0,0,1,95,87a2.08,2.08,0,0,1,0-3,2.12,2.12,0,0,1,1.41-.52,2.1,2.1,0,0,1,1.4.52A1.81,1.81,0,0,1,98.44,85.51Z"/></g></g></g></svg>