<svg xmlns="http://www.w3.org/2000/svg" viewBox="0 0 500 177.57"><defs><style>.cls-1{fill:#fff;}.cls-2{fill:#e5e2e2;}.cls-10,.cls-3{fill:#6a86c3;}.cls-4{fill:#98c0e7;}.cls-5{fill:#432e4a;}.cls-6{fill:#facfb4;}.cls-7{fill:#f29483;}.cls-8{fill:#fff9f4;}.cls-9{fill:#dce9f8;}.cls-10{font-size:35.21px;font-family:Ubuntu-Bold, Ubuntu;font-weight:700;}</style></defs><title>img.síntomas</title><g id="Capa_2" data-name="Capa 2"><g id="home"><path class="cls-1" d="M25.15,176.31a23.93,23.93,0,0,1-23.9-23.89V25.15A23.93,23.93,0,0,1,25.15,1.26h449.7a23.92,23.92,0,0,1,23.89,23.89V152.42a23.92,23.92,0,0,1-23.89,23.89Z"/><path class="cls-2" d="M474.85,2.52a22.65,22.65,0,0,1,22.63,22.63V152.42a22.65,22.65,0,0,1-22.63,22.63H25.15A22.66,22.66,0,0,1,2.51,152.42V25.15A22.66,22.66,0,0,1,25.15,2.52Zm0-2.52H25.15A25.15,25.15,0,0,0,0,25.15V152.42a25.15,25.15,0,0,0,25.15,25.15h449.7A25.15,25.15,0,0,0,500,152.42V25.15A25.15,25.15,0,0,0,474.85,0Z"/><path class="cls-3" d="M188.13,88.79a79,79,0,1,1-79-79,79,79,0,0,1,79,79"/><path class="cls-1" d="M184.1,88.79a75,75,0,1,1-74.94-75,74.94,74.94,0,0,1,74.94,75"/><path class="cls-4" d="M148.64,152.49c1.25-17.21,2-43.3-4.65-47-10-5.52-56.84-4.37-67.22.36-6.94,3.15-7.1,29.73-6.45,47a75,75,0,0,0,78.32-.41"/><path class="cls-5" d="M74.68,93.6a.6.6,0,0,1-.43-.18c-.07-.06-6.64-6.44-2.12-17.66a88.87,88.87,0,0,1,4.38-9.15c2.35-4.4,4-7.58,4.83-14.58a.62.62,0,0,1,.69-.55.64.64,0,0,1,.57.69c-.81,7.25-2.65,10.69-5,15a84.46,84.46,0,0,0-4.31,9c-4.21,10.44,1.74,16.22,1.8,16.27a.63.63,0,0,1,0,.9.61.61,0,0,1-.45.2"/><path class="cls-5" d="M116.93,26.88a8.7,8.7,0,1,1-8.37-9,8.7,8.7,0,0,1,8.37,9"/><path class="cls-5" d="M74.09,90.23s2.17,5.43,12.43,8,18.67-.59,26.49,2.89,19.67.52,22.2-2.68,4.73-40.56-1.15-47.27S95.43,36.88,87.72,43.7s-17.88,42-13.63,46.53"/><path class="cls-5" d="M138.55,62.94a28.65,28.65,0,0,1-29.71,27.55C93,89.9,78.36,75.9,79,60.09s14-27.29,29.83-26.7,30.36,13.74,29.77,29.55"/><path class="cls-6" d="M121.67,86.89s1.85,22.31,0,24.79-13.64.62-16.73,0-4.34-24.79-2.49-24.79,18.86-5,19.22,0"/><path class="cls-6" d="M86.53,60.79s1.17,34.78,24.69,36.28,23.48-47.5,15-52.15-44-3.79-39.66,15.87"/><path class="cls-7" d="M114.47,68.24s4.48,10.7,3.33,11.41-4.54.58-5.45-.21.28-12.4,2.12-11.2"/><path class="cls-5" d="M105,42.25S96.61,46.32,95,54s-.77,27.25-9.71,26.35c0,0-17.29-38.79,19.75-38.08"/><path class="cls-5" d="M109.48,42.41c-.76.55,8.69.53,14.1,7.08s6.69,22.94,7.53,23.24,4.17-20.29-1.76-26.48-15.52-7-19.87-3.84"/><path class="cls-7" d="M102.78,93.89s9.15,5.21,18.65.35c0,0,.73,5.84,0,7.18s-15.79,2.31-18.75-4.33c0,0-.76-3.48.1-3.2"/><path class="cls-6" d="M128.88,74.12s1.84-8.71,4.92-5.65.21,12.18-2.87,13-3.78-2.89-2.05-7.39"/><path class="cls-6" d="M92,72.74s-1.59-8.85-5.74-6S85,78.82,88.78,79.93s5-2.56,3.22-7.19"/><path class="cls-5" d="M119.39,63.35s3.9-2.62,6.77.24c2.54,2.51-2.81.82-4.66,1.38s-4.34.67-2.11-1.62"/><path class="cls-5" d="M109.09,64s-3.74-2.85-6.78-.17c-2.68,2.37,2.77,1,4.57,1.66s4.3.92,2.21-1.49"/><path class="cls-8" d="M105,81.21h-.29a7.62,7.62,0,1,1,5.87-12.79A7.62,7.62,0,0,1,105,81.21m0-14.38a6.77,6.77,0,0,0-.25,13.53H105a6.77,6.77,0,0,0,.25-13.54Z"/><path class="cls-8" d="M97.85,73.75a.41.41,0,0,1-.16,0l-6.37-2.64a.42.42,0,1,1,.32-.78L98,72.94a.43.43,0,0,1,.23.55.43.43,0,0,1-.39.26"/><path class="cls-5" d="M112.64,45.48s-1,13.5,4.25,15.21,15.23,1.53,15.84-.53-9.9-18.65-17.46-21.31C102,34.19,90,53.71,91.48,58.89S108.76,62,111.19,61.3s1-12.1,1.45-15.82"/><path class="cls-8" d="M112.64,73.88a.42.42,0,0,1,0-.83l4.29-.33a.42.42,0,0,1,.07.84l-4.3.32Z"/><path class="cls-5" d="M102.81,35.19a.51.51,0,0,1-.29-.08A7.75,7.75,0,0,1,98,29.73c-1-5,3.58-10.39,3.78-10.62a.64.64,0,0,1,.89-.06.63.63,0,0,1,.07.89s-4.36,5.15-3.5,9.55A6.58,6.58,0,0,0,103.1,34a.63.63,0,0,1,.27.85.65.65,0,0,1-.56.34"/><path class="cls-5" d="M112.83,36.74a.65.65,0,0,1-.48-.23.63.63,0,0,1,.08-.89s5.14-4.36,5-8.84a6.54,6.54,0,0,0-3-5.07.64.64,0,0,1,.76-1,7.8,7.8,0,0,1,3.53,6.06c.13,5.09-5.25,9.65-5.47,9.84a.63.63,0,0,1-.41.15"/><path class="cls-5" d="M133,97.18a.63.63,0,0,1-.34-1.16A12.86,12.86,0,0,0,138,84.12a89.55,89.55,0,0,0-2-9.87c-1.51-6.14-3.07-12.49-2.68-18.49a.63.63,0,0,1,1.26.08c-.38,5.81,1.16,12.07,2.64,18.12a87.84,87.84,0,0,1,2.08,10,14.13,14.13,0,0,1-5.82,13.11.54.54,0,0,1-.35.11"/><path class="cls-5" d="M138.48,65.84h-.08a.63.63,0,0,1-.54-.71c1.38-9.79-1.37-17.56-8.18-23.09A29,29,0,0,0,119,36.62a.63.63,0,0,1-.48-.76.65.65,0,0,1,.76-.48c.23.06,23.31,5.44,19.86,29.91a.64.64,0,0,1-.63.55"/><path class="cls-7" d="M115.63,90.63a6.43,6.43,0,0,1-2.34-.44.63.63,0,0,1,.48-1.17,4.88,4.88,0,0,0,3.61,0,.63.63,0,1,1,.56,1.13,5.16,5.16,0,0,1-2.31.53"/><path class="cls-7" d="M89.61,77.71a.63.63,0,0,1-.19,0,.63.63,0,0,1-.42-.79,7,7,0,0,0-1.8-7A.63.63,0,0,1,88,69a8.2,8.2,0,0,1,2.17,8.29.62.62,0,0,1-.6.45"/><path class="cls-7" d="M131,77.83h0a.63.63,0,0,1-.59-.68A8.9,8.9,0,0,1,133.23,71a.63.63,0,0,1,.89.1.65.65,0,0,1-.1.89,7.73,7.73,0,0,0-2.44,5.26.63.63,0,0,1-.63.59"/><path class="cls-6" d="M88.78,107.82s21.76,19.31,33.89,14.27,15.71-16.85,9.62-18.66-53-3.18-43.51,4.39"/><path class="cls-7" d="M116.89,88.36a.57.57,0,0,1-.22,0c-2-.72-3-1.59-3-2.68-.06-1.77,2.64-3,2.95-3.14a.63.63,0,0,1,.83.32.62.62,0,0,1-.32.83c-.9.4-2.22,1.3-2.2,1.95,0,.48.82,1,2.16,1.53a.63.63,0,0,1-.21,1.23"/><path class="cls-5" d="M106.88,75.34a.82.82,0,0,1-.55-.21c-2.83-2.49-4.79-1.84-4.87-1.81a.86.86,0,0,1-1.08-.51.84.84,0,0,1,.48-1.07c.12,0,2.93-1.09,6.58,2.13a.84.84,0,0,1,.07,1.19.81.81,0,0,1-.63.28"/><path class="cls-5" d="M121.75,75.5a.87.87,0,0,1-.63-.28A.84.84,0,0,1,121.2,74c3.64-3.23,6.46-2.18,6.58-2.13a.84.84,0,0,1-.61,1.57c-.09,0-2-.66-4.86,1.82a.8.8,0,0,1-.56.21"/><polygon class="cls-7" points="174.46 88.78 158.49 84.17 153.81 90.21 142.51 89.01 155.82 95.54 160.47 87.94 174.46 88.78"/><polygon class="cls-7" points="160.58 77.15 150.5 77.31 148.86 81.64 142.09 82.96 150.97 84.38 152.32 79.15 160.58 77.15"/><path class="cls-8" d="M124.08,80.14h-.29a7.5,7.5,0,1,1,.29,0m0-14.39a6.77,6.77,0,0,0-.24,13.54h.25a6.78,6.78,0,0,0,.26-13.55Z"/><path class="cls-6" d="M99.55,137.49a235.43,235.43,0,0,0,24-35.64c4.38-8,12.6-10,12.89-8.88s-4.77,5.84-4.77,5.84,6.76-5,7.85-3.36-4.42,6.56-4.42,6.56,4.92-2.84,7-1.65-5.82,2.7-5.67,6.86c1.31,36.32-7.88,50.33-16,55.67a74.31,74.31,0,0,1-11.23.84h-1.24Z"/><path class="cls-7" d="M112.35,123a.59.59,0,0,1-.23,0,.63.63,0,0,1-.35-.82c7.36-18,11.89-20.65,12.08-20.76a.63.63,0,0,1,.61,1.11c-.08,0-4.45,2.82-11.52,20.13a.64.64,0,0,1-.59.39"/><path class="cls-4" d="M92.82,148.85l-25.63,2A75.41,75.41,0,0,1,50,134.82c.68-5,1.94-10.18,4.19-14,6.26-10.74,23.73-15.59,26.64-16.19s12,44.25,12,44.25"/><path class="cls-4" d="M142.51,104.86s11.13,1.12,14.15,15.93c.89,4.38,1.35,14.75,1.58,24.63a75,75,0,0,1-18.8,11.94Z"/><path class="cls-4" d="M97.84,134.8s13.2,21.61,13.47,28.9c-.71,0-1.43,0-2.15,0a74.79,74.79,0,0,1-57.64-27c2.07-10.5,4.66-17.24,6.4-14.31,12,20.35,39.92,12.41,39.92,12.41"/><path class="cls-9" d="M96,135.64c-12.26,0-23.37-12.16-23.84-12.68a.84.84,0,0,1,.06-1.19.85.85,0,0,1,1.19.06C73.51,122,84.48,134,96,134a.84.84,0,0,1,0,1.68"/><path class="cls-9" d="M144.57,154.85c.08-7,.11-15.9-.16-21.22-.48-9-2.82-11-2.84-11.07a.85.85,0,0,1-.14-1.17.84.84,0,0,1,1.16-.17c.29.23,3,2.46,3.5,12.32.26,5.12.25,13.54.18,20.37-.56.32-1.13.63-1.7.94"/><text class="cls-10" transform="translate(243.02 96.49)">Sín</text><text class="cls-10" transform="translate(294.78 96.49)">t</text><text class="cls-10" transform="translate(309 96.49)">omas</text></g></g></svg>