<svg xmlns="http://www.w3.org/2000/svg" viewBox="0 0 423.27 73.96"><defs><style>.cls-1{fill:#9c3;}.cls-2{fill:#7294cc;}.cls-3{fill:#9fceff;}</style></defs><title>logo.ucare.footer</title><g id="Capa_2" data-name="Capa 2"><g id="home"><path class="cls-1" d="M178.64,8.75H196v54.5H179.86V57q-6.51,7.51-17.32,7.51-10,0-16-6.62t-6-18.32V8.75H157.9V38.54q0,5.3,2.6,8.27a8.9,8.9,0,0,0,7.11,3,10.12,10.12,0,0,0,8-3.47,13.21,13.21,0,0,0,3-9Z"/><path class="cls-2" d="M230.5,64.47q-13.8,0-22-7.67t-8.16-20.69q0-12.8,8.22-20.69t21.57-7.88A29.73,29.73,0,0,1,251.57,16L242,26.51a15.51,15.51,0,0,0-10.92-4.3A13,13,0,0,0,221.34,26a13.59,13.59,0,0,0-3.75,10,13.72,13.72,0,0,0,3.7,10,13,13,0,0,0,9.76,3.8,15.62,15.62,0,0,0,11.47-4.74l9.82,10.37A30,30,0,0,1,230.5,64.47Z"/><path class="cls-2" d="M300.55,8.75h16.11v54.5H300.53l0-6.51q-7,7.62-18.1,7.62-11.47,0-18.75-7.89T256.42,36q0-12.57,7.29-20.47t18.75-7.88q11.25,0,18.1,7.5ZM277.22,45.93a12.12,12.12,0,0,0,9.32,3.86,12.42,12.42,0,0,0,9.38-3.8,13.85,13.85,0,0,0,3.64-10,13.81,13.81,0,0,0-3.64-10,12.4,12.4,0,0,0-9.38-3.81,12.15,12.15,0,0,0-9.32,3.86A14,14,0,0,0,273.64,36,14,14,0,0,0,277.22,45.93Z"/><path class="cls-2" d="M355.17,7.54a19.21,19.21,0,0,1,14,5.4L361.9,25.63a15.68,15.68,0,0,0-8.5-2.76,11.17,11.17,0,0,0-8.71,3.53q-3.21,3.54-3.2,10.37V63.25H324.16V8.75H340.6v6.84Q345.9,7.54,355.17,7.54Z"/><path class="cls-2" d="M394.34,7.54q15.23,0,23,9.26t5.35,24.39H382.64A10.28,10.28,0,0,0,387.16,48a16.51,16.51,0,0,0,9.6,2.59q8.72,0,14.57-4.63l9,9.71q-9.6,8.94-24.49,8.94-14.34,0-22.62-7.67T365,36.11q0-12.8,8.11-20.69T394.34,7.54Zm.55,13.68a13,13,0,0,0-8.44,2.64,10.33,10.33,0,0,0-3.7,7.4H406.8a10.16,10.16,0,0,0-3.47-7.4A12.71,12.71,0,0,0,394.89,21.22Z"/><path class="cls-2" d="M131,26.84A24.9,24.9,0,0,0,83.74,14.09,24.92,24.92,0,0,0,36.46,26.84H36.4c.62,12.23,7.5,23,20.4,32.88A92.31,92.31,0,0,0,83.74,74a92.3,92.3,0,0,0,26.93-14.24c12.88-9.89,19.76-20.66,20.41-32.88Z"/><path class="cls-3" d="M131,26.83A24.9,24.9,0,0,0,83.77,14.08c5.91,10.66,8.9,55.73,34.72,38.42,2.46-1.65,5.8-6.33,7.7-9.33a31.33,31.33,0,0,0,4.92-16.34Z"/><path class="cls-1" d="M1.3,39.92a1.3,1.3,0,0,1,0-2.6Zm20.93-.11L1.3,39.92v-2.6l20.93-.11h0Zm0-2.6a1.3,1.3,0,0,1,0,2.6Zm13.66-2.7,1.61,2h0l-.26.2-.29.18-.31.18-.33.17-.34.16-.35.16-.38.15-.39.15-.41.14-.43.14-.43.13-.45.13-.47.12-.47.11-.49.11-.51.11-.52.1-.52.1-.54.09-.54.09-.54.08-.56.08-.56.07-.56.06-.57.06-.58.05-.57,0-.58,0-.58,0-.57,0-.58,0h-.58v-2.6h1.08l.54,0,.55,0,.55,0,.54,0L26,37l.54,0,.53-.06.53-.07.53-.06.52-.08.5-.08.5-.09.49-.09.47-.1.47-.1.46-.11L32,36l.42-.11.41-.12.39-.12.37-.12.36-.12.32-.12.31-.13.29-.11.26-.12.23-.12.2-.12.16-.11.14-.1h0Zm0,0a1.3,1.3,0,1,1,1.6,2Zm9.52,5.19-2.32,1.17h0l-.19-.36-.19-.34-.19-.33-.2-.32-.21-.31-.21-.29-.21-.28-.21-.25-.22-.25L41,37.88l-.21-.22-.22-.2-.22-.19-.22-.17L40,37l-.21-.13-.2-.12-.2-.1-.18-.09L39,36.44l-.17-.06-.16,0-.15,0h-.4l-.11,0-.1,0-.1,0-.1,0-.09.06-.1.07-1.61-2,.29-.21.31-.18.32-.15.33-.12.34-.09.35,0,.34,0h.35l.35,0,.33.06.34.09.33.11.33.13.32.15.32.17.3.19.31.2.31.22.3.23.29.25.29.27.28.29.28.3.28.31.27.32.26.34.26.36.24.37.24.39.24.39.23.41.22.42h0Zm0,0a1.3,1.3,0,0,1-2.32,1.16l2.32-1.15Zm3.87-2.52,2.52.58h0l-.14.57-.15.53-.15.52-.17.49-.18.47-.19.44-.2.42-.21.39-.22.37L50,42.3l-.25.32-.25.3-.28.27-.3.25-.32.21-.35.18-.36.13-.38.09-.39,0h-.4L46.29,44l-.37-.12-.36-.15-.34-.2-.32-.23L44.6,43l-.27-.29-.27-.32-.26-.34-.25-.38-.24-.4-.23-.43,2.32-1.17.18.33.18.3.17.25.17.22.15.19.15.16.14.12.12.09.11.06.09,0,.06,0h.18l.07,0,.08,0,.1-.07.11-.09.13-.12.14-.16.14-.19.14-.22.15-.24.15-.29.15-.32.15-.35.14-.38.14-.4.13-.44.13-.47.12-.5h0Zm0,0a1.29,1.29,0,0,1,2.52.58Zm5.62-13L51.8,37.76l-2.52-.58,3.1-13.62h0Zm-2.52-.58a1.29,1.29,0,1,1,2.52.58Zm7,.12-2.55.5h0l-.1-.5-.11-.47-.1-.42-.11-.39-.11-.35-.12-.31-.11-.27-.11-.23-.1-.18-.09-.14-.07-.09,0,0h0l0,0,.1,0,.14,0H56l.1,0,0,0h0l0,0-.07.09-.09.14-.11.17-.12.23-.12.27-.12.31-.12.35-.12.39-.12.42-.12.46-.12.5-2.52-.58.13-.56.14-.51L52.8,22l.15-.46.15-.42.15-.4.17-.38L53.6,20l.19-.33.2-.29.23-.28.26-.26.3-.23.34-.19.41-.13.43,0,.44.06.39.14.34.2.29.24.25.26.22.28.2.31.18.33.16.36.16.38.15.4.14.44.13.47.13.5.12.52.12.56h0Zm0,0a1.3,1.3,0,0,1-2.55.5Zm.06,14L56.81,24.18l2.55-.5L62,37.15h0l-2.54.49Zm2.54-.5a1.29,1.29,0,0,1-2.54.5Zm4.1,1.15,2.33,1.14h0l-.25.5-.26.46-.27.44-.27.4-.28.38-.28.35-.3.31-.31.29-.32.26-.34.22-.35.19-.37.15-.39.1-.41,0h-.41l-.4-.06-.4-.12-.37-.17L62.07,43l-.31-.25-.29-.28-.27-.31L61,41.82l-.23-.36-.21-.39-.2-.41-.18-.43L60,39.77l-.16-.49-.14-.52-.13-.53-.12-.57L62,37.17l.1.49.11.46.12.43.12.38.13.36.13.32.14.29.14.25.14.2.13.18.12.14.11.11.1.07.07,0,.06,0h.2l.08,0,.1,0,.12-.06.14-.1.16-.13.17-.16.19-.19L65,40l.2-.27.2-.31.21-.34.21-.38.21-.41Zm0,0a1.29,1.29,0,1,1,2.32,1.14L66.05,38.3Zm9.42-2.63-2.4,1h0L73,36.39l-.11-.21L72.75,36l-.11-.15-.1-.12-.1-.1-.09-.07-.07-.05-.06,0-.07,0h-.32l-.11,0-.13,0-.14.06-.16.08-.17.11-.18.13-.19.16-.2.18-.2.21-.21.23-.22.25-.22.29-.22.31-.22.33-.22.36-.22.38-.21.4-.22.43-2.33-1.14.25-.49.25-.47.26-.45.26-.42.27-.41.28-.38.28-.36.28-.33.29-.32.29-.29.29-.27.31-.25.32-.23.32-.2.33-.16.33-.15L71,33l.36-.08.37,0h.38l.37,0,.37.08.36.13.34.17.32.2.28.24.27.27.25.3.23.32.21.34.19.36.17.39h0Zm0,0a1.3,1.3,0,0,1-2.41,1l2.41-1ZM76.79,40l2.28,1.23h0l-.15.24-.2.23-.26.21-.31.17-.35.09-.32,0-.31,0-.28-.07-.24-.1-.21-.12-.19-.13-.18-.14-.17-.15-.15-.16-.16-.17-.15-.18-.16-.19-.15-.2-.15-.2-.15-.23-.15-.23-.15-.24-.15-.26-.15-.26-.15-.28-.14-.28-.15-.29-.15-.3-.15-.32-.14-.33L73.21,37l-.14-.33,2.4-1,.13.31.13.3.12.29.13.28.13.26.13.26.13.25.13.24.13.23.12.21.12.2.12.18.11.17.11.16.11.14.1.12.08.11.08.09.08.08.06,0,0,0h0l0,0-.09,0h-.28l-.18,0-.16.08-.12.1-.07.08,0,0h0Zm0,0a1.3,1.3,0,1,1,2.28,1.24L76.79,40Zm13-2.65v2.6H88.14l-.52,0-.52,0-.51,0-.5,0-.5,0-.49,0-.48,0-.46.05-.45,0-.44.05-.43,0-.4.06-.4.06-.38.06-.36.07-.33.07-.32.07-.3.07-.28.07-.25.08-.23.08-.2.07-.16.07-.13.06-.1,0,0,0h0l0,0,.07-.11L76.76,40l.21-.31.23-.24.24-.19.23-.16.25-.14.26-.13.28-.12.29-.1.3-.1.31-.1.34-.09.35-.09.37-.08L80.8,38l.39-.08.41-.07.43-.07.44-.07.45-.06.47-.06.48,0,.49,0,.49,0,.51,0,.52,0,.52,0,.54,0,.54,0,.54,0H89.7Zm0,0a1.3,1.3,0,1,1,0,2.59v-2.6Zm.06,2.6h-.06v-2.6h.06Zm0-2.6a1.3,1.3,0,1,1,0,2.59v-2.6Zm10.53-.26L102.12,39h0l-.34.25-.24.11-.2.06-.19,0-.2,0-.21,0-.23,0-.24,0-.25,0-.28,0-.3,0-.32,0-.34,0-.36,0-.36,0-.39,0-.4,0-.42,0-.42,0-.45,0-.46,0-.47,0H89.8v-2.6H95l.47,0,.45,0,.44,0,.41,0,.41,0,.39,0,.37,0,.36,0,.33,0,.32,0,.3,0,.28,0,.25,0,.23,0,.19,0,.17,0,.14,0h.11l.07,0h0l-.09,0-.25.19h0Zm0,0a1.3,1.3,0,0,1,1.83,0,1.29,1.29,0,0,1,0,1.83l-1.81-1.86Zm3.35,1-2.31,1.15h0l0,0v0l0,0v0h0l0,0h0l0,0h.43l.09,0,.06,0,0,0,.06,0,.06,0,0,0-1.78-1.88.11-.1.13-.1.13-.07.13-.06.14-.06.17,0,.14,0,.14,0h.31l.13,0,.13,0,.12,0,.12,0,.13,0,.09.05.11,0,.11.07.09.06.1.07.09.08.08.08.08.08.07.08.08.09.07.09.06.08.07.1.06.1,0,.09,0,.11,0,.1h0Zm0,0a1.29,1.29,0,1,1-2.32,1.15l2.32-1.14Zm-.18.09,1.39,2.18h0l-.12.07-.11.06-.14.07-.13.05-.12,0-.15,0-.14,0-.13,0h-.39l-.15,0-.13,0-.12,0-.13,0-.12,0-.12,0-.12,0-.11-.06-.11-.07-.1,0-.1-.08-.1-.08L102,40.1,101.9,40l-.09-.1-.08-.1-.08-.1-.08-.11-.07-.11-.06-.11-.06-.12,2.31-1.15h0v0h-.21Zm0,0a1.29,1.29,0,1,1,1.44,2.15l-1.43-2.15Zm8.28-1,0,2.6h-2.27l-.31,0-.3,0-.29,0-.29,0L108,40l-.28,0-.27,0-.26,0-.25,0-.24,0-.23,0-.22,0-.21,0-.2,0-.19,0-.18,0-.16,0-.13,0-.13,0-.11,0-.08,0-.06,0h0l.06,0-1.39-2.18.18-.1.17-.07L104,38l.16-.05.17,0,.17,0,.17,0,.19,0,.2,0,.21,0,.21,0,.23,0,.24,0,.25,0,.26,0,.26,0,.27,0,.27,0,.29,0,.29,0,.3,0,.31,0,.31,0,.31,0,.32,0,.33,0h2Zm0,0a1.3,1.3,0,0,1,0,2.6l0-2.6Zm7.13-6.63,2.51.61h0l-.12.43-.13.43-.14.43-.17.42-.18.41-.2.4-.21.4-.22.38-.24.38-.25.36-.25.36L119,36l-.29.34-.3.32-.3.3-.32.3-.32.29-.33.27-.34.26-.35.24-.36.23-.35.2-.37.2-.38.18-.38.16-.39.14-.39.13-.4.11-.4.08-.41.06-.4,0-.41,0,0-2.6h.26l.26,0,.26,0,.27-.06.27-.07.28-.09.28-.09.28-.12.27-.13.27-.15.27-.16.27-.17.27-.19.26-.2.25-.21.26-.22.25-.22.24-.25.24-.26.22-.26.22-.28.21-.28.19-.29.19-.29.18-.31.17-.31.15-.32.14-.32.13-.32.12-.33.11-.34.09-.34h0Zm0,0a1.29,1.29,0,1,1,2.51.63l-2.51-.62Zm6.39,3.08-2.54.5h0l-.1-.51-.11-.48-.11-.46-.11-.43-.11-.4-.11-.36L122,31.2l-.11-.31-.11-.28-.11-.24-.1-.21-.1-.17-.08-.12-.07-.09,0-.05h0l0,0,.09,0,.15,0h.17l.15,0,.11-.05,0,0h0l0,0-.06.09-.07.12-.08.18-.09.22-.09.26-.09.3-.09.33-2.51-.61.11-.42.11-.38.12-.36.12-.34.14-.32.16-.3.18-.28L120,28l.25-.25.3-.22.36-.17.4-.1h.43l.41.09.35.16.28.2.25.22.22.24.2.25.18.28.17.29.16.32.15.34.14.35.14.38.13.41.13.43.13.45.12.47.12.51.12.53.11.55Zm0,0a1.29,1.29,0,0,1-2.54.48l2.54-.49Zm-1.87,4-.67-3.47,2.54-.5.68,3.47-2.55.5Zm2.55-.5a1.3,1.3,0,0,1-2.55.5Zm2.4,3.06,2.42.93h0l-.17.41-.18.38-.19.35-.2.33-.21.31-.22.29-.25.26-.28.24-.31.2-.34.16-.37.11-.39,0-.4,0-.38-.09-.35-.14-.31-.17-.29-.22-.26-.24-.24-.26-.22-.29-.2-.3-.19-.33-.18-.34-.16-.37-.16-.4-.16-.42L124,40.2l-.14-.47-.14-.49-.13-.51-.12-.53-.12-.56,2.55-.5.11.51.11.48.11.45.12.42.12.4.12.37.13.34.13.29.13.28.12.24.12.2.12.17.1.14.09.1.07.07,0,0h-.19l0,0,.06-.05.08-.08.09-.12.11-.16L128,41l.11-.24.13-.28.13-.3h0Zm0,0a1.29,1.29,0,1,1,2.42.92l-2.42-.93Zm7.45-3.27-2.29,1.23h0l-.08-.13-.07-.1-.06-.08,0-.06,0,0,0,0h-.08l0,0-.07,0-.09.05-.09.06-.11.08-.12.1-.12.12-.13.14-.14.16-.14.17-.14.2-.15.22-.15.24-.15.26-.13.27-.14.29-.14.3-.14.33-.14.34-2.42-.93.16-.4.17-.38.17-.37.17-.36.18-.33.19-.33.19-.31.18-.29.2-.28.21-.27.21-.24.22-.23.23-.22.23-.2.24-.19.25-.17.26-.15.28-.13.29-.1.3-.07.31,0h.31l.32,0,.31.08.31.12.29.15.26.18.23.21.22.23.2.25.18.27.17.27h0Zm0,0a1.3,1.3,0,0,1-2.28,1.25Zm1.33,2.45,2,1.6h0l-.17.19-.2.18-.22.15-.23.12-.25.08-.25.05-.25,0h-.24l-.22,0-.22,0-.2-.07-.18-.08-.18-.09-.18-.1-.17-.11-.17-.12-.16-.13-.16-.13-.15-.14-.15-.15-.15-.16-.14-.16-.15-.18-.14-.18-.14-.19-.15-.2-.14-.2-.14-.21-.14-.22-.14-.22-.13-.22-.13-.24,2.29-1.23.1.19.1.18.11.18.11.17.11.16.11.16.1.14.11.14.1.13.1.12.1.1.1.1.09.09.09.08.09.07.08.06.07.05.06,0,0,0,0,0h-.18l-.08,0-.07,0-.06,0-.06.05,0,0h0Zm0,0a1.3,1.3,0,1,1,2,1.6Zm5.94-2v2.6h-.83l-.17,0-.16,0-.17,0-.16,0-.16,0-.16,0-.16,0-.16,0-.15,0-.15,0-.15,0-.14,0-.14,0-.12,0-.12.05-.12,0-.11.05-.1,0-.09,0-.08.05-.08,0-.06,0-.05,0,0,0,0,0,0,0h0l-2-1.6.13-.15.13-.14.14-.13.14-.12.15-.11.15-.1.15-.09.16-.1.16-.09.17-.08.17-.08.18-.08.18-.07.19-.07.19-.07.2-.06.19-.06.2-.06.19-.05.2,0,.21,0,.21,0,.21,0,.22,0,.22,0,.21,0,.21,0,.22,0,.22,0h.66Zm0,0a1.3,1.3,0,0,1,0,2.59v-2.6Zm3.44-.26,1.79,1.88h0l-.16.13-.15.1-.15.08-.12.06-.13.05-.13,0-.13,0-.13,0-.12,0-.14,0-.14,0-.15,0-.14,0-.15,0-.16,0-.16,0-.16,0-.17,0-.17,0-.17,0-.18,0-.18,0-.19,0h-1.76v-2.6h1.74l.16,0h.16l.15,0,.14,0,.14,0,.14,0,.13,0,.12,0,.11,0,.11,0,.1,0,.1,0,.08,0,.07,0,.06,0,0,0h.06l0,0-.06,0-.08.07h0Zm0,0a1.31,1.31,0,0,1,1.83,0,1.29,1.29,0,0,1,0,1.83l-1.8-1.87Zm3.34,1-2.32,1.15h0l0,0v0l0,0v0h0l0,0h.46l.09,0,.07,0,.06,0,.06,0,.05,0,.05,0-1.79-1.88.12-.1.12-.09.13-.07.13-.07.14-.06.16,0,.14,0,.14,0h.31l.13,0,.13,0,.13,0,.12,0,.12,0,.1.05.11,0,.1.06.08.06.1.07.09.08.08.08.08.08.07.08.08.09.07.09.06.08.07.1.06.1,0,.09.06.11.05.1h0Zm0,0a1.3,1.3,0,1,1-2.33,1.15l2.33-1.14Zm-.21.11,1.43,2.15-.12.07-.11.06-.14.07-.12,0-.12,0-.15,0-.14,0-.13,0h-.4l-.15,0-.13,0-.12,0-.13,0-.12,0-.11,0-.12-.05-.12-.06-.11-.07-.1-.05-.11-.08-.1-.08-.09-.08L148,40l-.09-.1-.08-.09-.08-.1-.08-.11-.07-.11-.06-.11-.06-.12,2.32-1.15h0v0h-.21Zm0,0a1.29,1.29,0,1,1,1.44,2.15l-1.43-2.15Z"/></g></g></svg>